0
SECTION
2
HEADER
9
$INSUNITS
70
4
0
ENDSEC
0
SECTION
2
ENTITIES
0
CIRCLE
8
EDGES
10
64.360
20
96.510
30
0.0
40
1.200
0
CIRCLE
8
EDGES
10
51.640
20
96.510
30
0.0
40
1.200
0
CIRCLE
8
EDGES
10
51.640
20
113.490
30
0.0
40
1.200
0
CIRCLE
8
EDGES
10
64.360
20
113.490
30
0.0
40
1.200
0
CIRCLE
8
EDGES
10
128.400
20
150.170
30
0.0
40
1.200
0
CIRCLE
8
EDGES
10
147.600
20
150.170
30
0.0
40
1.200
0
CIRCLE
8
EDGES
10
208.000
20
105.000
30
0.0
40
30.170
0
CIRCLE
8
EDGES
10
208.000
20
105.000
30
0.0
40
25.370
0
CIRCLE
8
EDGES
10
195.400
20
150.170
30
0.0
40
1.200
0
CIRCLE
8
EDGES
10
220.600
20
150.170
30
0.0
40
1.200
0
CIRCLE
8
EDGES
10
14.200
20
43.600
30
0.0
40
2.200
0
CIRCLE
8
EDGES
10
14.200
20
39.200
30
0.0
40
2.200
0
CIRCLE
8
EDGES
10
156.000
20
12.000
30
0.0
40
1.000
0
CIRCLE
8
EDGES
10
158.400
20
12.000
30
0.0
40
1.000
0
CIRCLE
8
EDGES
10
160.800
20
12.000
30
0.0
40
1.000
0
POLYLINE
8
EDGES
66
1
70
1
0
VERTEX
8
EDGES
10
0.000
20
210.000
30
0.0
0
VERTEX
8
EDGES
10
297.000
20
210.000
30
0.0
0
VERTEX
8
EDGES
10
297.000
20
0.000
30
0.0
0
VERTEX
8
EDGES
10
0.000
20
0.000
30
0.0
0
SEQEND
8
EDGES
0
POLYLINE
8
EDGES
66
1
70
1
0
VERTEX
8
EDGES
10
8.000
20
202.000
30
0.0
0
VERTEX
8
EDGES
10
289.000
20
202.000
30
0.0
0
VERTEX
8
EDGES
10
289.000
20
8.000
30
0.0
0
VERTEX
8
EDGES
10
8.000
20
8.000
30
0.0
0
SEQEND
8
EDGES
0
POLYLINE
8
EDGES
66
1
70
1
0
VERTEX
8
EDGES
10
55.000
20
135.170
30
0.0
0
VERTEX
8
EDGES
10
61.000
20
135.170
30
0.0
0
VERTEX
8
EDGES
10
61.000
20
74.840
30
0.0
0
VERTEX
8
EDGES
10
55.000
20
74.840
30
0.0
0
SEQEND
8
EDGES
0
POLYLINE
8
EDGES
66
1
70
1
0
VERTEX
8
EDGES
10
135.000
20
135.170
30
0.0
0
VERTEX
8
EDGES
10
141.000
20
135.170
30
0.0
0
VERTEX
8
EDGES
10
141.000
20
74.840
30
0.0
0
VERTEX
8
EDGES
10
135.000
20
74.840
30
0.0
0
SEQEND
8
EDGES
0
POLYLINE
8
EDGES
66
1
70
1
0
VERTEX
8
EDGES
10
189.000
20
48.000
30
0.0
0
VERTEX
8
EDGES
10
289.000
20
48.000
30
0.0
0
VERTEX
8
EDGES
10
289.000
20
8.000
30
0.0
0
VERTEX
8
EDGES
10
189.000
20
8.000
30
0.0
0
SEQEND
8
EDGES
0
POLYLINE
8
EDGES
66
1
70
1
0
VERTEX
8
EDGES
10
122.000
20
13.500
30
0.0
0
VERTEX
8
EDGES
10
130.000
20
13.500
30
0.0
0
VERTEX
8
EDGES
10
130.000
20
10.500
30
0.0
0
VERTEX
8
EDGES
10
122.000
20
10.500
30
0.0
0
SEQEND
8
EDGES
0
POLYLINE
8
EDGES
66
1
70
1
0
VERTEX
8
EDGES
10
49.000
20
105.000
30
0.0
0
VERTEX
8
EDGES
10
49.570
20
109.580
30
0.0
0
VERTEX
8
EDGES
10
51.900
20
113.840
30
0.0
0
VERTEX
8
EDGES
10
51.900
20
113.840
30
0.0
0
VERTEX
8
EDGES
10
54.530
20
116.270
30
0.0
0
VERTEX
8
EDGES
10
54.530
20
116.270
30
0.0
0
VERTEX
8
EDGES
10
58.000
20
117.000
30
0.0
0
VERTEX
8
EDGES
10
61.470
20
116.270
30
0.0
0
VERTEX
8
EDGES
10
61.470
20
116.270
30
0.0
0
VERTEX
8
EDGES
10
64.100
20
113.840
30
0.0
0
VERTEX
8
EDGES
10
64.100
20
113.840
30
0.0
0
VERTEX
8
EDGES
10
66.430
20
109.580
30
0.0
0
VERTEX
8
EDGES
10
67.000
20
105.000
30
0.0
0
VERTEX
8
EDGES
10
66.430
20
100.420
30
0.0
0
VERTEX
8
EDGES
10
64.100
20
96.160
30
0.0
0
VERTEX
8
EDGES
10
64.100
20
96.160
30
0.0
0
VERTEX
8
EDGES
10
61.470
20
93.730
30
0.0
0
VERTEX
8
EDGES
10
61.470
20
93.730
30
0.0
0
VERTEX
8
EDGES
10
58.000
20
93.000
30
0.0
0
VERTEX
8
EDGES
10
54.530
20
93.730
30
0.0
0
VERTEX
8
EDGES
10
54.530
20
93.730
30
0.0
0
VERTEX
8
EDGES
10
51.900
20
96.160
30
0.0
0
VERTEX
8
EDGES
10
51.900
20
96.160
30
0.0
0
VERTEX
8
EDGES
10
49.570
20
100.420
30
0.0
0
SEQEND
8
EDGES
0
POLYLINE
8
EDGES
66
1
70
1
0
VERTEX
8
EDGES
10
55.470
20
113.580
30
0.0
0
VERTEX
8
EDGES
10
58.000
20
117.000
30
0.0
0
VERTEX
8
EDGES
10
60.530
20
113.580
30
0.0
0
VERTEX
8
EDGES
10
60.530
20
113.580
30
0.0
0
VERTEX
8
EDGES
10
58.000
20
112.420
30
0.0
0
VERTEX
8
EDGES
10
58.000
20
112.420
30
0.0
0
VERTEX
8
EDGES
10
55.470
20
113.580
30
0.0
0
SEQEND
8
EDGES
0
POLYLINE
8
EDGES
66
1
70
1
0
VERTEX
8
EDGES
10
55.470
20
96.420
30
0.0
0
VERTEX
8
EDGES
10
55.470
20
96.420
30
0.0
0
VERTEX
8
EDGES
10
58.000
20
97.580
30
0.0
0
VERTEX
8
EDGES
10
58.000
20
97.580
30
0.0
0
VERTEX
8
EDGES
10
60.530
20
96.420
30
0.0
0
VERTEX
8
EDGES
10
60.530
20
96.420
30
0.0
0
VERTEX
8
EDGES
10
58.000
20
93.000
30
0.0
0
SEQEND
8
EDGES
0
POLYLINE
8
EDGES
66
1
70
1
0
VERTEX
8
EDGES
10
51.580
20
108.770
30
0.0
0
VERTEX
8
EDGES
10
51.900
20
113.840
30
0.0
0
VERTEX
8
EDGES
10
51.900
20
113.840
30
0.0
0
VERTEX
8
EDGES
10
51.900
20
113.840
30
0.0
0
VERTEX
8
EDGES
10
55.470
20
113.580
30
0.0
0
VERTEX
8
EDGES
10
55.470
20
113.580
30
0.0
0
VERTEX
8
EDGES
10
55.470
20
113.580
30
0.0
0
VERTEX
8
EDGES
10
54.060
20
110.280
30
0.0
0
VERTEX
8
EDGES
10
51.580
20
108.770
30
0.0
0
SEQEND
8
EDGES
0
POLYLINE
8
EDGES
66
1
70
1
0
VERTEX
8
EDGES
10
51.580
20
101.230
30
0.0
0
VERTEX
8
EDGES
10
51.580
20
101.230
30
0.0
0
VERTEX
8
EDGES
10
54.060
20
99.720
30
0.0
0
VERTEX
8
EDGES
10
55.470
20
96.420
30
0.0
0
VERTEX
8
EDGES
10
55.470
20
96.420
30
0.0
0
VERTEX
8
EDGES
10
55.470
20
96.420
30
0.0
0
VERTEX
8
EDGES
10
51.900
20
96.160
30
0.0
0
VERTEX
8
EDGES
10
51.900
20
96.160
30
0.0
0
VERTEX
8
EDGES
10
51.900
20
96.160
30
0.0
0
SEQEND
8
EDGES
0
POLYLINE
8
EDGES
66
1
70
1
0
VERTEX
8
EDGES
10
60.530
20
113.580
30
0.0
0
VERTEX
8
EDGES
10
60.530
20
113.580
30
0.0
0
VERTEX
8
EDGES
10
60.530
20
113.580
30
0.0
0
VERTEX
8
EDGES
10
64.100
20
113.840
30
0.0
0
VERTEX
8
EDGES
10
64.100
20
113.840
30
0.0
0
VERTEX
8
EDGES
10
64.100
20
113.840
30
0.0
0
VERTEX
8
EDGES
10
64.420
20
108.770
30
0.0
0
VERTEX
8
EDGES
10
64.420
20
108.770
30
0.0
0
VERTEX
8
EDGES
10
61.940
20
110.280
30
0.0
0
SEQEND
8
EDGES
0
POLYLINE
8
EDGES
66
1
70
1
0
VERTEX
8
EDGES
10
60.530
20
96.420
30
0.0
0
VERTEX
8
EDGES
10
61.940
20
99.720
30
0.0
0
VERTEX
8
EDGES
10
64.420
20
101.230
30
0.0
0
VERTEX
8
EDGES
10
64.420
20
101.230
30
0.0
0
VERTEX
8
EDGES
10
64.100
20
96.160
30
0.0
0
VERTEX
8
EDGES
10
64.100
20
96.160
30
0.0
0
VERTEX
8
EDGES
10
64.100
20
96.160
30
0.0
0
VERTEX
8
EDGES
10
60.530
20
96.420
30
0.0
0
VERTEX
8
EDGES
10
60.530
20
96.420
30
0.0
0
SEQEND
8
EDGES
0
POLYLINE
8
EDGES
66
1
70
1
0
VERTEX
8
EDGES
10
49.000
20
105.000
30
0.0
0
VERTEX
8
EDGES
10
51.580
20
108.770
30
0.0
0
VERTEX
8
EDGES
10
52.430
20
105.000
30
0.0
0
VERTEX
8
EDGES
10
51.580
20
101.230
30
0.0
0
SEQEND
8
EDGES
0
POLYLINE
8
EDGES
66
1
70
1
0
VERTEX
8
EDGES
10
63.570
20
105.000
30
0.0
0
VERTEX
8
EDGES
10
64.420
20
108.770
30
0.0
0
VERTEX
8
EDGES
10
67.000
20
105.000
30
0.0
0
VERTEX
8
EDGES
10
64.420
20
101.230
30
0.0
0
SEQEND
8
EDGES
0
POLYLINE
8
EDGES
66
1
70
1
0
VERTEX
8
EDGES
10
54.530
20
116.270
30
0.0
0
VERTEX
8
EDGES
10
54.530
20
116.270
30
0.0
0
VERTEX
8
EDGES
10
58.000
20
117.000
30
0.0
0
VERTEX
8
EDGES
10
58.000
20
117.000
30
0.0
0
VERTEX
8
EDGES
10
55.470
20
113.580
30
0.0
0
VERTEX
8
EDGES
10
55.470
20
113.580
30
0.0
0
SEQEND
8
EDGES
0
POLYLINE
8
EDGES
66
1
70
1
0
VERTEX
8
EDGES
10
54.530
20
93.730
30
0.0
0
VERTEX
8
EDGES
10
55.470
20
96.420
30
0.0
0
VERTEX
8
EDGES
10
55.470
20
96.420
30
0.0
0
VERTEX
8
EDGES
10
58.000
20
93.000
30
0.0
0
VERTEX
8
EDGES
10
58.000
20
93.000
30
0.0
0
VERTEX
8
EDGES
10
54.530
20
93.730
30
0.0
0
SEQEND
8
EDGES
0
POLYLINE
8
EDGES
66
1
70
1
0
VERTEX
8
EDGES
10
58.000
20
117.000
30
0.0
0
VERTEX
8
EDGES
10
58.000
20
117.000
30
0.0
0
VERTEX
8
EDGES
10
61.470
20
116.270
30
0.0
0
VERTEX
8
EDGES
10
61.470
20
116.270
30
0.0
0
VERTEX
8
EDGES
10
60.530
20
113.580
30
0.0
0
VERTEX
8
EDGES
10
60.530
20
113.580
30
0.0
0
VERTEX
8
EDGES
10
58.000
20
117.000
30
0.0
0
SEQEND
8
EDGES
0
POLYLINE
8
EDGES
66
1
70
1
0
VERTEX
8
EDGES
10
58.000
20
93.000
30
0.0
0
VERTEX
8
EDGES
10
60.530
20
96.420
30
0.0
0
VERTEX
8
EDGES
10
60.530
20
96.420
30
0.0
0
VERTEX
8
EDGES
10
61.470
20
93.730
30
0.0
0
VERTEX
8
EDGES
10
61.470
20
93.730
30
0.0
0
VERTEX
8
EDGES
10
58.000
20
93.000
30
0.0
0
VERTEX
8
EDGES
10
58.000
20
93.000
30
0.0
0
SEQEND
8
EDGES
0
POLYLINE
8
EDGES
66
1
70
1
0
VERTEX
8
EDGES
10
52.440
20
105.000
30
0.0
0
VERTEX
8
EDGES
10
54.060
20
110.280
30
0.0
0
VERTEX
8
EDGES
10
58.000
20
112.420
30
0.0
0
VERTEX
8
EDGES
10
58.000
20
112.420
30
0.0
0
VERTEX
8
EDGES
10
61.940
20
110.280
30
0.0
0
VERTEX
8
EDGES
10
63.560
20
105.000
30
0.0
0
VERTEX
8
EDGES
10
61.940
20
99.720
30
0.0
0
VERTEX
8
EDGES
10
58.000
20
97.580
30
0.0
0
VERTEX
8
EDGES
10
58.000
20
97.580
30
0.0
0
VERTEX
8
EDGES
10
54.060
20
99.720
30
0.0
0
SEQEND
8
EDGES
0
POLYLINE
8
EDGES
66
1
70
1
0
VERTEX
8
EDGES
10
54.060
20
110.280
30
0.0
0
VERTEX
8
EDGES
10
55.470
20
113.580
30
0.0
0
VERTEX
8
EDGES
10
58.000
20
112.420
30
0.0
0
VERTEX
8
EDGES
10
54.060
20
110.280
30
0.0
0
SEQEND
8
EDGES
0
POLYLINE
8
EDGES
66
1
70
1
0
VERTEX
8
EDGES
10
54.060
20
99.720
30
0.0
0
VERTEX
8
EDGES
10
54.060
20
99.720
30
0.0
0
VERTEX
8
EDGES
10
58.000
20
97.580
30
0.0
0
VERTEX
8
EDGES
10
55.470
20
96.420
30
0.0
0
SEQEND
8
EDGES
0
POLYLINE
8
EDGES
66
1
70
1
0
VERTEX
8
EDGES
10
58.000
20
112.420
30
0.0
0
VERTEX
8
EDGES
10
60.530
20
113.580
30
0.0
0
VERTEX
8
EDGES
10
61.940
20
110.280
30
0.0
0
VERTEX
8
EDGES
10
61.940
20
110.280
30
0.0
0
SEQEND
8
EDGES
0
POLYLINE
8
EDGES
66
1
70
1
0
VERTEX
8
EDGES
10
58.000
20
97.580
30
0.0
0
VERTEX
8
EDGES
10
61.940
20
99.720
30
0.0
0
VERTEX
8
EDGES
10
61.940
20
99.720
30
0.0
0
VERTEX
8
EDGES
10
60.530
20
96.420
30
0.0
0
SEQEND
8
EDGES
0
POLYLINE
8
EDGES
66
1
70
1
0
VERTEX
8
EDGES
10
51.580
20
108.770
30
0.0
0
VERTEX
8
EDGES
10
51.580
20
108.770
30
0.0
0
VERTEX
8
EDGES
10
54.060
20
110.280
30
0.0
0
VERTEX
8
EDGES
10
54.060
20
110.280
30
0.0
0
VERTEX
8
EDGES
10
52.440
20
105.000
30
0.0
0
VERTEX
8
EDGES
10
52.430
20
105.000
30
0.0
0
SEQEND
8
EDGES
0
POLYLINE
8
EDGES
66
1
70
1
0
VERTEX
8
EDGES
10
51.580
20
101.230
30
0.0
0
VERTEX
8
EDGES
10
52.430
20
105.000
30
0.0
0
VERTEX
8
EDGES
10
52.440
20
105.000
30
0.0
0
VERTEX
8
EDGES
10
54.060
20
99.720
30
0.0
0
VERTEX
8
EDGES
10
54.060
20
99.720
30
0.0
0
VERTEX
8
EDGES
10
51.580
20
101.230
30
0.0
0
SEQEND
8
EDGES
0
POLYLINE
8
EDGES
66
1
70
1
0
VERTEX
8
EDGES
10
61.940
20
110.280
30
0.0
0
VERTEX
8
EDGES
10
61.940
20
110.280
30
0.0
0
VERTEX
8
EDGES
10
64.420
20
108.770
30
0.0
0
VERTEX
8
EDGES
10
64.420
20
108.770
30
0.0
0
VERTEX
8
EDGES
10
63.570
20
105.000
30
0.0
0
VERTEX
8
EDGES
10
63.560
20
105.000
30
0.0
0
SEQEND
8
EDGES
0
POLYLINE
8
EDGES
66
1
70
1
0
VERTEX
8
EDGES
10
61.940
20
99.720
30
0.0
0
VERTEX
8
EDGES
10
63.560
20
105.000
30
0.0
0
VERTEX
8
EDGES
10
63.570
20
105.000
30
0.0
0
VERTEX
8
EDGES
10
64.420
20
101.230
30
0.0
0
VERTEX
8
EDGES
10
64.420
20
101.230
30
0.0
0
VERTEX
8
EDGES
10
61.940
20
99.720
30
0.0
0
SEQEND
8
EDGES
0
POLYLINE
8
EDGES
66
1
70
1
0
VERTEX
8
EDGES
10
51.900
20
113.840
30
0.0
0
VERTEX
8
EDGES
10
54.530
20
116.270
30
0.0
0
VERTEX
8
EDGES
10
55.470
20
113.580
30
0.0
0
SEQEND
8
EDGES
0
POLYLINE
8
EDGES
66
1
70
1
0
VERTEX
8
EDGES
10
51.900
20
96.160
30
0.0
0
VERTEX
8
EDGES
10
55.470
20
96.420
30
0.0
0
VERTEX
8
EDGES
10
54.530
20
93.730
30
0.0
0
SEQEND
8
EDGES
0
POLYLINE
8
EDGES
66
1
70
1
0
VERTEX
8
EDGES
10
60.530
20
113.580
30
0.0
0
VERTEX
8
EDGES
10
61.470
20
116.270
30
0.0
0
VERTEX
8
EDGES
10
64.100
20
113.840
30
0.0
0
SEQEND
8
EDGES
0
POLYLINE
8
EDGES
66
1
70
1
0
VERTEX
8
EDGES
10
60.530
20
96.420
30
0.0
0
VERTEX
8
EDGES
10
64.100
20
96.160
30
0.0
0
VERTEX
8
EDGES
10
61.470
20
93.730
30
0.0
0
SEQEND
8
EDGES
0
POLYLINE
8
EDGES
66
1
70
1
0
VERTEX
8
EDGES
10
49.570
20
109.590
30
0.0
0
VERTEX
8
EDGES
10
51.900
20
113.840
30
0.0
0
VERTEX
8
EDGES
10
51.580
20
108.770
30
0.0
0
SEQEND
8
EDGES
0
POLYLINE
8
EDGES
66
1
70
1
0
VERTEX
8
EDGES
10
49.570
20
100.410
30
0.0
0
VERTEX
8
EDGES
10
51.580
20
101.230
30
0.0
0
VERTEX
8
EDGES
10
51.900
20
96.160
30
0.0
0
SEQEND
8
EDGES
0
POLYLINE
8
EDGES
66
1
70
1
0
VERTEX
8
EDGES
10
64.100
20
113.840
30
0.0
0
VERTEX
8
EDGES
10
66.430
20
109.590
30
0.0
0
VERTEX
8
EDGES
10
64.420
20
108.770
30
0.0
0
SEQEND
8
EDGES
0
POLYLINE
8
EDGES
66
1
70
1
0
VERTEX
8
EDGES
10
64.100
20
96.160
30
0.0
0
VERTEX
8
EDGES
10
64.420
20
101.230
30
0.0
0
VERTEX
8
EDGES
10
66.430
20
100.410
30
0.0
0
SEQEND
8
EDGES
0
POLYLINE
8
EDGES
66
1
70
1
0
VERTEX
8
EDGES
10
49.000
20
105.000
30
0.0
0
VERTEX
8
EDGES
10
49.000
20
105.000
30
0.0
0
VERTEX
8
EDGES
10
49.000
20
105.000
30
0.0
0
VERTEX
8
EDGES
10
51.580
20
101.230
30
0.0
0
VERTEX
8
EDGES
10
51.580
20
101.230
30
0.0
0
VERTEX
8
EDGES
10
51.580
20
101.230
30
0.0
0
VERTEX
8
EDGES
10
49.570
20
100.410
30
0.0
0
VERTEX
8
EDGES
10
49.570
20
100.420
30
0.0
0
SEQEND
8
EDGES
0
POLYLINE
8
EDGES
66
1
70
1
0
VERTEX
8
EDGES
10
49.000
20
105.000
30
0.0
0
VERTEX
8
EDGES
10
49.570
20
109.580
30
0.0
0
VERTEX
8
EDGES
10
49.570
20
109.590
30
0.0
0
VERTEX
8
EDGES
10
51.580
20
108.770
30
0.0
0
VERTEX
8
EDGES
10
51.580
20
108.770
30
0.0
0
VERTEX
8
EDGES
10
51.580
20
108.770
30
0.0
0
VERTEX
8
EDGES
10
49.000
20
105.000
30
0.0
0
SEQEND
8
EDGES
0
POLYLINE
8
EDGES
66
1
70
1
0
VERTEX
8
EDGES
10
64.420
20
101.230
30
0.0
0
VERTEX
8
EDGES
10
64.420
20
101.230
30
0.0
0
VERTEX
8
EDGES
10
67.000
20
105.000
30
0.0
0
VERTEX
8
EDGES
10
67.000
20
105.000
30
0.0
0
VERTEX
8
EDGES
10
66.430
20
100.420
30
0.0
0
VERTEX
8
EDGES
10
66.430
20
100.410
30
0.0
0
VERTEX
8
EDGES
10
64.420
20
101.230
30
0.0
0
SEQEND
8
EDGES
0
POLYLINE
8
EDGES
66
1
70
1
0
VERTEX
8
EDGES
10
64.420
20
108.770
30
0.0
0
VERTEX
8
EDGES
10
64.420
20
108.770
30
0.0
0
VERTEX
8
EDGES
10
66.430
20
109.590
30
0.0
0
VERTEX
8
EDGES
10
66.430
20
109.580
30
0.0
0
VERTEX
8
EDGES
10
67.000
20
105.000
30
0.0
0
VERTEX
8
EDGES
10
67.000
20
105.000
30
0.0
0
VERTEX
8
EDGES
10
67.000
20
105.000
30
0.0
0
VERTEX
8
EDGES
10
64.420
20
108.770
30
0.0
0
SEQEND
8
EDGES
0
POLYLINE
8
EDGES
66
1
70
1
0
VERTEX
8
EDGES
10
133.050
20
151.170
30
0.0
0
VERTEX
8
EDGES
10
142.950
20
151.170
30
0.0
0
VERTEX
8
EDGES
10
147.000
20
147.170
30
0.0
0
VERTEX
8
EDGES
10
138.000
20
139.170
30
0.0
0
VERTEX
8
EDGES
10
129.000
20
147.170
30
0.0
0
SEQEND
8
EDGES
0
POLYLINE
8
EDGES
66
1
70
1
0
VERTEX
8
EDGES
10
201.400
20
151.170
30
0.0
0
VERTEX
8
EDGES
10
214.600
20
151.170
30
0.0
0
VERTEX
8
EDGES
10
220.000
20
147.170
30
0.0
0
VERTEX
8
EDGES
10
208.000
20
139.170
30
0.0
0
VERTEX
8
EDGES
10
196.000
20
147.170
30
0.0
0
SEQEND
8
EDGES
0
LINE
8
EDGES
10
0.000
20
210.000
30
0.0
11
0.000
21
208.600
31
0.0
0
LINE
8
EDGES
10
0.000
20
210.000
30
0.0
11
5.000
21
210.000
31
0.0
0
LINE
8
EDGES
10
0.000
20
210.000
30
0.0
11
0.000
21
205.000
31
0.0
0
LINE
8
EDGES
10
11.000
20
190.500
30
0.0
11
286.000
21
190.500
31
0.0
0
LINE
8
ANNOTATION
10
11.000
20
105.000
30
0.0
11
286.000
21
105.000
31
0.0
0
LINE
8
ANNOTATION
10
58.000
20
120.000
30
0.0
11
58.000
21
90.000
31
0.0
0
LINE
8
ANNOTATION
10
46.000
20
105.000
30
0.0
11
70.000
21
105.000
31
0.0
0
LINE
8
ANNOTATION
10
49.000
20
105.000
30
0.0
11
49.000
21
125.000
31
0.0
0
LINE
8
ANNOTATION
10
67.000
20
105.000
30
0.0
11
67.000
21
125.000
31
0.0
0
LINE
8
EDGES
10
49.000
20
124.000
30
0.0
11
67.000
21
124.000
31
0.0
0
LINE
8
EDGES
10
48.100
20
123.100
30
0.0
11
49.900
21
124.900
31
0.0
0
LINE
8
EDGES
10
66.100
20
123.100
30
0.0
11
67.900
21
124.900
31
0.0
0
LINE
8
ANNOTATION
10
58.000
20
117.000
30
0.0
11
76.000
21
117.000
31
0.0
0
LINE
8
ANNOTATION
10
58.000
20
93.000
30
0.0
11
76.000
21
93.000
31
0.0
0
LINE
8
EDGES
10
75.000
20
117.000
30
0.0
11
75.000
21
93.000
31
0.0
0
LINE
8
EDGES
10
74.100
20
116.100
30
0.0
11
75.900
21
117.900
31
0.0
0
LINE
8
EDGES
10
74.100
20
92.100
30
0.0
11
75.900
21
93.900
31
0.0
0
LINE
8
ANNOTATION
10
55.000
20
77.840
30
0.0
11
55.000
21
68.840
31
0.0
0
LINE
8
ANNOTATION
10
61.000
20
77.840
30
0.0
11
61.000
21
68.840
31
0.0
0
LINE
8
EDGES
10
55.000
20
69.840
30
0.0
11
61.000
21
69.840
31
0.0
0
LINE
8
EDGES
10
54.100
20
68.940
30
0.0
11
55.900
21
70.740
31
0.0
0
LINE
8
EDGES
10
60.100
20
68.940
30
0.0
11
61.900
21
70.740
31
0.0
0
LINE
8
EDGES
10
135.000
20
132.170
30
0.0
11
129.000
21
147.170
31
0.0
0
LINE
8
EDGES
10
141.000
20
132.170
30
0.0
11
147.000
21
147.170
31
0.0
0
LINE
8
EDGES
10
129.000
20
147.170
30
0.0
11
147.000
21
147.170
31
0.0
0
LINE
8
ANNOTATION
10
138.000
20
154.170
30
0.0
11
138.000
21
71.840
31
0.0
0
LINE
8
EDGES
10
128.400
20
145.170
30
0.0
11
128.400
21
150.170
31
0.0
0
LINE
8
EDGES
10
147.600
20
145.170
30
0.0
11
147.600
21
150.170
31
0.0
0
LINE
8
ANNOTATION
10
142.950
20
151.170
30
0.0
11
157.000
21
151.170
31
0.0
0
LINE
8
ANNOTATION
10
138.000
20
135.170
30
0.0
11
157.000
21
135.170
31
0.0
0
LINE
8
EDGES
10
156.000
20
151.170
30
0.0
11
156.000
21
135.170
31
0.0
0
LINE
8
EDGES
10
155.100
20
150.270
30
0.0
11
156.900
21
152.070
31
0.0
0
LINE
8
EDGES
10
155.100
20
134.270
30
0.0
11
156.900
21
136.070
31
0.0
0
LINE
8
ANNOTATION
10
135.000
20
77.840
30
0.0
11
135.000
21
67.840
31
0.0
0
LINE
8
ANNOTATION
10
141.000
20
77.840
30
0.0
11
141.000
21
67.840
31
0.0
0
LINE
8
EDGES
10
135.000
20
68.840
30
0.0
11
141.000
21
68.840
31
0.0
0
LINE
8
EDGES
10
134.100
20
67.940
30
0.0
11
135.900
21
69.740
31
0.0
0
LINE
8
EDGES
10
140.100
20
67.940
30
0.0
11
141.900
21
69.740
31
0.0
0
LINE
8
EDGES
10
199.550
20
133.970
30
0.0
11
196.000
21
147.170
31
0.0
0
LINE
8
EDGES
10
216.450
20
133.970
30
0.0
11
220.000
21
147.170
31
0.0
0
LINE
8
EDGES
10
196.000
20
147.170
30
0.0
11
220.000
21
147.170
31
0.0
0
LINE
8
ANNOTATION
10
208.000
20
154.170
30
0.0
11
208.000
21
71.840
31
0.0
0
LINE
8
EDGES
10
195.400
20
145.170
30
0.0
11
195.400
21
150.170
31
0.0
0
LINE
8
EDGES
10
220.600
20
145.170
30
0.0
11
220.600
21
150.170
31
0.0
0
LINE
8
EDGES
10
182.630
20
105.000
30
0.0
11
233.370
21
105.000
31
0.0
0
LINE
8
EDGES
10
181.730
20
104.100
30
0.0
11
183.530
21
105.900
31
0.0
0
LINE
8
EDGES
10
232.470
20
104.100
30
0.0
11
234.270
21
105.900
31
0.0
0
LINE
8
ANNOTATION
10
220.000
20
147.170
30
0.0
11
248.160
21
147.170
31
0.0
0
LINE
8
ANNOTATION
10
208.000
20
135.170
30
0.0
11
248.160
21
135.170
31
0.0
0
LINE
8
EDGES
10
247.160
20
147.170
30
0.0
11
247.160
21
135.170
31
0.0
0
LINE
8
EDGES
10
246.260
20
146.270
30
0.0
11
248.060
21
148.070
31
0.0
0
LINE
8
EDGES
10
246.260
20
134.270
30
0.0
11
248.060
21
136.070
31
0.0
0
LINE
8
ANNOTATION
10
214.600
20
151.170
30
0.0
11
274.160
21
151.170
31
0.0
0
LINE
8
ANNOTATION
10
208.000
20
139.170
30
0.0
11
274.160
21
139.170
31
0.0
0
LINE
8
EDGES
10
273.160
20
151.170
30
0.0
11
273.160
21
139.170
31
0.0
0
LINE
8
EDGES
10
272.260
20
150.270
30
0.0
11
274.060
21
152.070
31
0.0
0
LINE
8
EDGES
10
272.260
20
138.270
30
0.0
11
274.060
21
140.070
31
0.0
0
LINE
8
EDGES
10
12.000
20
50.600
30
0.0
11
112.000
21
50.600
31
0.0
0
LINE
8
EDGES
10
12.000
20
36.600
30
0.0
11
112.000
21
36.600
31
0.0
0
LINE
8
EDGES
10
189.000
20
40.000
30
0.0
11
289.000
21
40.000
31
0.0
0
LINE
8
EDGES
10
8.000
20
16.000
30
0.0
11
189.000
21
16.000
31
0.0
0
LINE
8
EDGES
10
26.000
20
12.000
30
0.0
11
34.000
21
12.000
31
0.0
0
LINE
8
ANNOTATION
10
60.000
20
12.000
30
0.0
11
68.000
21
12.000
31
0.0
0
LINE
8
ANNOTATION
10
92.000
20
12.000
30
0.0
11
100.000
21
12.000
31
0.0
0
TEXT
8
TEXT
10
148.500
20
194.000
30
0.0
40
3.68
1
TECHNICAL SHEET - SOLITAIRE RING
0
TEXT
8
TEXT
10
148.500
20
186.000
30
0.0
40
2.08
1
ESTIMATED DIMENSIONS - REFERENCE VALUES, NOT MEASUREMENTS; VERIFY OR ADJUST BEFORE PRODUCTION
0
TEXT
8
TEXT
10
58.000
20
125.400
30
0.0
40
2.56
1
6 mm EST.
0
TEXT
8
TEXT
10
76.800
20
103.900
30
0.0
40
2.56
1
8 mm EST.
0
TEXT
8
TEXT
10
58.000
20
71.240
30
0.0
40
2.56
1
2 mm EST.
0
TEXT
8
TEXT
10
58.000
20
60.840
30
0.0
40
2.88
1
TOP VIEW
0
TEXT
8
TEXT
10
157.800
20
142.070
30
0.0
40
2.56
1
5.3 mm rise
0
TEXT
8
TEXT
10
138.000
20
70.240
30
0.0
40
2.56
1
2 mm
0
TEXT
8
TEXT
10
138.000
20
60.840
30
0.0
40
2.88
1
FRONT VIEW
0
TEXT
8
TEXT
10
208.000
20
106.400
30
0.0
40
2.56
1
%%c 16.9 mm EST.
0
TEXT
8
TEXT
10
248.970
20
140.070
30
0.0
40
2.56
1
4 mm gallery EST.
0
TEXT
8
TEXT
10
274.960
20
144.070
30
0.0
40
2.56
1
4 mm EST.
0
TEXT
8
TEXT
10
208.000
20
62.840
30
0.0
40
2.88
1
SIDE PROFILE
0
TEXT
8
TEXT
10
12.000
20
52.000
30
0.0
40
2.40
1
GEMSTONE KEY & PRODUCTION NOTES
0
TEXT
8
TEXT
10
12.000
20
47.000
30
0.0
40
1.92
1
REF
0
TEXT
8
TEXT
10
21.000
20
47.000
30
0.0
40
1.92
1
QTY
0
TEXT
8
TEXT
10
29.000
20
47.000
30
0.0
40
1.92
1
STONE
0
TEXT
8
TEXT
10
62.000
20
47.000
30
0.0
40
1.92
1
L x W x D mm
0
TEXT
8
TEXT
10
84.000
20
47.000
30
0.0
40
1.92
1
CT EA.
0
TEXT
8
TEXT
10
97.000
20
47.000
30
0.0
40
1.92
1
TOTAL
0
TEXT
8
TEXT
10
14.200
20
42.550
30
0.0
40
2.24
1
A
0
TEXT
8
TEXT
10
21.000
20
42.600
30
0.0
40
2.08
1
1
0
TEXT
8
TEXT
10
29.000
20
42.600
30
0.0
40
2.08
1
emerald oval brilliant
0
TEXT
8
TEXT
10
62.000
20
42.600
30
0.0
40
2.08
1
8 x 6 x 4 EST.
0
TEXT
8
TEXT
10
84.000
20
42.600
30
0.0
40
2.08
1
1.04
0
TEXT
8
TEXT
10
97.000
20
42.600
30
0.0
40
2.08
1
1.04
0
TEXT
8
TEXT
10
14.200
20
38.150
30
0.0
40
2.24
1
B
0
TEXT
8
TEXT
10
21.000
20
38.200
30
0.0
40
2.08
1
6
0
TEXT
8
TEXT
10
29.000
20
38.200
30
0.0
40
2.08
1
diamond round brilliant
0
TEXT
8
TEXT
10
62.000
20
38.200
30
0.0
40
2.08
1
2 x 2 x 1.2 EST.
0
TEXT
8
TEXT
10
84.000
20
38.200
30
0.0
40
2.08
1
0.03
0
TEXT
8
TEXT
10
97.000
20
38.200
30
0.0
40
2.08
1
0.18
0
TEXT
8
TEXT
10
29.000
20
33.800
30
0.0
40
2.08
1
TOTAL SET WEIGHT
0
TEXT
8
TEXT
10
97.000
20
33.800
30
0.0
40
2.08
1
1.22
0
TEXT
8
TEXT
10
192.000
20
42.200
30
0.0
40
3.20
1
FACETTA
0
TEXT
8
TEXT
10
192.000
20
34.600
30
0.0
40
3.04
1
dsn_9144f2f36c50c3d4  -  v2
0
TEXT
8
TEXT
10
192.000
20
30.200
30
0.0
40
2.48
1
1.04 ct Emerald  -  oval brilliant
0
TEXT
8
TEXT
10
192.000
20
25.800
30
0.0
40
2.48
1
18k Rose Gold  -  high polish
0
TEXT
8
TEXT
10
192.000
20
21.400
30
0.0
40
2.48
1
Muzo Green  -  VS
0
TEXT
8
TEXT
10
192.000
20
17.400
30
0.0
40
2.16
1
UNITS mm  -  SCALE 3:1  -  EST. 2.9 g
0
TEXT
8
TEXT
10
192.000
20
14.300
30
0.0
40
1.72
1
ESTIMATED DIMS - VERIFY
0
TEXT
8
TEXT
10
192.000
20
11.200
30
0.0
40
1.72
1
BY usr_operator_review_not_fou…
0
TEXT
8
TEXT
10
286.000
20
11.200
30
0.0
40
2.16
1
2026-07-11
0
TEXT
8
TEXT
10
12.000
20
11.000
30
0.0
40
2.24
1
KEY
0
TEXT
8
TEXT
10
36.000
20
11.000
30
0.0
40
2.08
1
edge
0
TEXT
8
TEXT
10
70.000
20
11.000
30
0.0
40
2.08
1
witness
0
TEXT
8
TEXT
10
102.000
20
11.000
30
0.0
40
2.08
1
centerline
0
TEXT
8
TEXT
10
132.000
20
11.000
30
0.0
40
2.08
1
metal section
0
TEXT
8
TEXT
10
164.000
20
11.000
30
0.0
40
2.08
1
pavé
0
TEXT
8
TEXT
10
12.000
20
26.500
30
0.0
40
2.08
1
NOTES TO FACTORY
0
TEXT
8
TEXT
10
12.000
20
22.700
30
0.0
40
2.40
1
Synthetic live workflow fixture. Every dimension is a reference estimate pending designer measurement; unseen
0
TEXT
8
TEXT
10
12.000
20
19.100
30
0.0
40
2.40
1
gallery construction is not source-observed factory truth.
0
TEXT
8
TEXT
10
289.000
20
3.200
30
0.0
40
2.24
1
CONFIDENTIAL - FACTORY PRODUCTION ONLY
0
ENDSEC
0
EOF
