<svg xmlns="http://www.w3.org/2000/svg" viewBox="0 0 297 210" width="297mm" height="210mm" font-family="Georgia, 'Times New Roman', serif">
<defs><pattern id="hatch" width="1.4" height="1.4" patternTransform="rotate(45)" patternUnits="userSpaceOnUse"><line x1="0" y1="0" x2="0" y2="1.4" stroke="#8a8a8a" stroke-width="0.12"/></pattern></defs>
<rect x="0" y="0" width="297" height="210" fill="#fdfdfa"/>
<rect x="8" y="8" width="281" height="194" fill="none" stroke="#3f3f3f" stroke-width="0.3"/>
<text x="148.50" y="16.00" font-family="Georgia, 'Times New Roman', serif" font-size="4.6" fill="#3f3f3f" text-anchor="middle" letter-spacing="1.6">GEM IDENTIFICATION — LOOSE STONE</text>
<line x1="11.00" y1="105.00" x2="286.00" y2="105.00" stroke="#8a8a8a" stroke-width="0.15" stroke-dasharray="6 1.5 1 1.5"/>
<text x="14.00" y="26.00" font-family="Georgia, 'Times New Roman', serif" font-size="3.4" fill="#3f3f3f" text-anchor="start" letter-spacing="1.2">GEM DATA</text>
<text x="14.00" y="31.00" font-family="Georgia, 'Times New Roman', serif" font-size="3.0" fill="#8a8a8a" text-anchor="start">8.1 × 8.1 × 4.9 mm</text>
<text x="14.00" y="35.60" font-family="Georgia, 'Times New Roman', serif" font-size="3.0" fill="#8a8a8a" text-anchor="start">2.00 ct diamond, round brilliant</text>
<text x="14.00" y="40.20" font-family="Georgia, 'Times New Roman', serif" font-size="3.0" fill="#8a8a8a" text-anchor="start">table 57%</text>
<text x="14.00" y="44.80" font-family="Georgia, 'Times New Roman', serif" font-size="3.0" fill="#8a8a8a" text-anchor="start">depth 60.5%</text>
<text x="14.00" y="49.40" font-family="Georgia, 'Times New Roman', serif" font-size="3.0" fill="#8a8a8a" text-anchor="start">girdle medium</text>
<text x="14.00" y="54.00" font-family="Georgia, 'Times New Roman', serif" font-size="3.0" fill="#8a8a8a" text-anchor="start">clarity VS1 (gia_diamond)</text>
<ellipse cx="110.00" cy="105.00" rx="32.40" ry="32.40" fill="#ffffff" stroke="#3f3f3f" stroke-width="0.3"/>
<ellipse cx="110.00" cy="105.00" rx="18.47" ry="18.47" fill="#ffffff" stroke="#3f3f3f" stroke-width="0.3"/>
<line x1="128.47" y1="105.00" x2="142.40" y2="105.00" stroke="#3f3f3f" stroke-width="0.15"/>
<line x1="123.06" y1="118.06" x2="132.91" y2="127.91" stroke="#3f3f3f" stroke-width="0.15"/>
<line x1="110.00" y1="123.47" x2="110.00" y2="137.40" stroke="#3f3f3f" stroke-width="0.15"/>
<line x1="96.94" y1="118.06" x2="87.09" y2="127.91" stroke="#3f3f3f" stroke-width="0.15"/>
<line x1="91.53" y1="105.00" x2="77.60" y2="105.00" stroke="#3f3f3f" stroke-width="0.15"/>
<line x1="96.94" y1="91.94" x2="87.09" y2="82.09" stroke="#3f3f3f" stroke-width="0.15"/>
<line x1="110.00" y1="86.53" x2="110.00" y2="72.60" stroke="#3f3f3f" stroke-width="0.15"/>
<line x1="123.06" y1="91.94" x2="132.91" y2="82.09" stroke="#3f3f3f" stroke-width="0.15"/>
<line x1="110.00" y1="69.60" x2="110.00" y2="140.40" stroke="#8a8a8a" stroke-width="0.15" stroke-dasharray="3 1 0.5 1"/>
<line x1="74.60" y1="105.00" x2="145.40" y2="105.00" stroke="#8a8a8a" stroke-width="0.15" stroke-dasharray="3 1 0.5 1"/>
<line x1="91.53" y1="105.00" x2="91.53" y2="64.60" stroke="#8a8a8a" stroke-width="0.15" stroke-dasharray="0.8 0.8"/>
<line x1="128.47" y1="105.00" x2="128.47" y2="64.60" stroke="#8a8a8a" stroke-width="0.15" stroke-dasharray="0.8 0.8"/>
<line x1="91.53" y1="65.60" x2="128.47" y2="65.60" stroke="#8a8a8a" stroke-width="0.15"/>
<line x1="90.63" y1="66.50" x2="92.43" y2="64.70" stroke="#3f3f3f" stroke-width="0.24"/>
<line x1="127.57" y1="66.50" x2="129.37" y2="64.70" stroke="#3f3f3f" stroke-width="0.24"/>
<text x="110.00" y="64.20" font-family="Georgia, 'Times New Roman', serif" font-size="3.2" fill="#3f3f3f" text-anchor="middle">table 57% = 4.62 mm</text>
<line x1="77.60" y1="105.00" x2="77.60" y2="144.40" stroke="#8a8a8a" stroke-width="0.15" stroke-dasharray="0.8 0.8"/>
<line x1="142.40" y1="105.00" x2="142.40" y2="144.40" stroke="#8a8a8a" stroke-width="0.15" stroke-dasharray="0.8 0.8"/>
<line x1="77.60" y1="143.40" x2="142.40" y2="143.40" stroke="#8a8a8a" stroke-width="0.15"/>
<line x1="76.70" y1="144.30" x2="78.50" y2="142.50" stroke="#3f3f3f" stroke-width="0.24"/>
<line x1="141.50" y1="144.30" x2="143.30" y2="142.50" stroke="#3f3f3f" stroke-width="0.24"/>
<text x="110.00" y="142.00" font-family="Georgia, 'Times New Roman', serif" font-size="3.2" fill="#3f3f3f" text-anchor="middle">8.1 mm</text>
<line x1="110.00" y1="72.60" x2="150.40" y2="72.60" stroke="#8a8a8a" stroke-width="0.15" stroke-dasharray="0.8 0.8"/>
<line x1="110.00" y1="137.40" x2="150.40" y2="137.40" stroke="#8a8a8a" stroke-width="0.15" stroke-dasharray="0.8 0.8"/>
<line x1="149.40" y1="72.60" x2="149.40" y2="137.40" stroke="#8a8a8a" stroke-width="0.15"/>
<line x1="148.50" y1="73.50" x2="150.30" y2="71.70" stroke="#3f3f3f" stroke-width="0.24"/>
<line x1="148.50" y1="138.30" x2="150.30" y2="136.50" stroke="#3f3f3f" stroke-width="0.24"/>
<text x="151.20" y="106.10" font-family="Georgia, 'Times New Roman', serif" font-size="3.2" fill="#3f3f3f" text-anchor="start">8.1 mm</text>
<text x="110.00" y="153.40" font-family="Georgia, 'Times New Roman', serif" font-size="3.6" fill="#3f3f3f" text-anchor="middle" letter-spacing="1.2">FACE UP</text>
<polygon points="189.53,85.40 226.47,85.40 240.40,97.82 175.60,97.82" fill="#ffffff" stroke="#3f3f3f" stroke-width="0.3"/>
<rect x="175.60" y="97.82" width="64.80" height="1.30" fill="#ffffff" stroke="#3f3f3f" stroke-width="0.3"/>
<polygon points="175.60,99.11 240.40,99.11 208.00,124.60" fill="#ffffff" stroke="#3f3f3f" stroke-width="0.3"/>
<line x1="208.00" y1="82.40" x2="208.00" y2="127.60" stroke="#8a8a8a" stroke-width="0.15" stroke-dasharray="3 1 0.5 1"/>
<line x1="226.47" y1="85.40" x2="248.40" y2="85.40" stroke="#8a8a8a" stroke-width="0.15" stroke-dasharray="0.8 0.8"/>
<line x1="208.00" y1="124.60" x2="248.40" y2="124.60" stroke="#8a8a8a" stroke-width="0.15" stroke-dasharray="0.8 0.8"/>
<line x1="247.40" y1="85.40" x2="247.40" y2="124.60" stroke="#8a8a8a" stroke-width="0.15"/>
<line x1="246.50" y1="86.30" x2="248.30" y2="84.50" stroke="#3f3f3f" stroke-width="0.24"/>
<line x1="246.50" y1="125.50" x2="248.30" y2="123.70" stroke="#3f3f3f" stroke-width="0.24"/>
<text x="249.20" y="106.10" font-family="Georgia, 'Times New Roman', serif" font-size="3.2" fill="#3f3f3f" text-anchor="start">4.9 mm (60.5%)</text>
<line x1="175.60" y1="98.47" x2="169.60" y2="98.47" stroke="#8a8a8a" stroke-width="0.15" stroke-dasharray="0.8 0.8"/>
<text x="168.60" y="99.47" font-family="Georgia, 'Times New Roman', serif" font-size="2.8" fill="#8a8a8a" text-anchor="end">girdle: medium</text>
<line x1="240.40" y1="98.47" x2="227.44" y2="140.10" stroke="#8a8a8a" stroke-width="0.15" stroke-dasharray="0.8 0.8"/>
<text x="208.00" y="141.60" font-family="Georgia, 'Times New Roman', serif" font-size="2.8" fill="#3f3f3f" text-anchor="middle">laser inscription on girdle: "FCT-2141Z"</text>
<text x="208.00" y="136.60" font-family="Georgia, 'Times New Roman', serif" font-size="3.6" fill="#3f3f3f" text-anchor="middle" letter-spacing="1.2">PROFILE</text>
<rect x="189.00" y="162.00" width="100" height="40" fill="none" stroke="#3f3f3f" stroke-width="0.3"/>
<line x1="189.00" y1="170.00" x2="289.00" y2="170.00" stroke="#3f3f3f" stroke-width="0.15"/>
<text x="192.00" y="167.80" font-family="Georgia, 'Times New Roman', serif" font-size="4.0" fill="#3f3f3f" text-anchor="start" letter-spacing="2.0">FACETTA</text>
<text x="192.00" y="175.60" font-family="Georgia, 'Times New Roman', serif" font-size="4.2" fill="#3f3f3f" text-anchor="start" font-weight="bold">dsn_gem  ·  v1</text>
<text x="192.00" y="180.20" font-family="Georgia, 'Times New Roman', serif" font-size="3.2" fill="#3f3f3f" text-anchor="start">2.00 ct diamond, round brilliant</text>
<text x="192.00" y="184.80" font-family="Georgia, 'Times New Roman', serif" font-size="3.2" fill="#3f3f3f" text-anchor="start">loose stone — unmounted</text>
<text x="192.00" y="189.40" font-family="Georgia, 'Times New Roman', serif" font-size="3.2" fill="#3f3f3f" text-anchor="start">D  ·  VS1</text>
<text x="192.00" y="194.00" font-family="Georgia, 'Times New Roman', serif" font-size="3.0" fill="#3f3f3f" text-anchor="start">designer usr_ana  ·  2026-07-02</text>
<text x="192.00" y="198.60" font-family="Georgia, 'Times New Roman', serif" font-size="3.0" fill="#3f3f3f" text-anchor="start">UNITS mm  ·  SCALE 8:1</text>
</svg>
