<svg xmlns="http://www.w3.org/2000/svg" viewBox="0 0 297 210" width="297mm" height="210mm" font-family="Georgia, 'Times New Roman', serif">
<defs><pattern id="hatch" width="1.4" height="1.4" patternTransform="rotate(45)" patternUnits="userSpaceOnUse"><line x1="0" y1="0" x2="0" y2="1.4" stroke="#8a8a8a" stroke-width="0.12"/></pattern></defs>
<rect x="0" y="0" width="297" height="210" fill="#fdfdfa"/>
<rect x="8" y="8" width="281" height="194" fill="none" stroke="#3f3f3f" stroke-width="0.3"/>
<text x="148.50" y="16.00" font-family="Georgia, 'Times New Roman', serif" font-size="4.6" fill="#3f3f3f" text-anchor="middle" letter-spacing="1.6">TECHNICAL SHEET — OVAL STATION BANGLE</text>
<ellipse cx="95.00" cy="103.00" rx="61.20" ry="51.20" fill="url(#hatch)" stroke="#3f3f3f" stroke-width="0.3"/>
<ellipse cx="95.00" cy="103.00" rx="56.00" ry="46.00" fill="#ffffff" stroke="#3f3f3f" stroke-width="0.3"/>
<rect x="92.10" y="51.50" width="5.80" height="5.80" fill="#ffffff" stroke="#3f3f3f" stroke-width="0.3" transform="rotate(0.0 95.00 54.40)"/>
<rect x="133.54" y="65.73" width="5.80" height="5.80" fill="#ffffff" stroke="#3f3f3f" stroke-width="0.3" transform="rotate(39.7 136.44 68.63)"/>
<rect x="150.70" y="100.10" width="5.80" height="5.80" fill="#ffffff" stroke="#3f3f3f" stroke-width="0.3" transform="rotate(90.0 153.60 103.00)"/>
<rect x="133.54" y="134.47" width="5.80" height="5.80" fill="#ffffff" stroke="#3f3f3f" stroke-width="0.3" transform="rotate(140.3 136.44 137.37)"/>
<rect x="92.10" y="148.70" width="5.80" height="5.80" fill="#ffffff" stroke="#3f3f3f" stroke-width="0.3" transform="rotate(180.0 95.00 151.60)"/>
<rect x="50.66" y="134.47" width="5.80" height="5.80" fill="#ffffff" stroke="#3f3f3f" stroke-width="0.3" transform="rotate(-140.3 53.56 137.37)"/>
<rect x="33.50" y="100.10" width="5.80" height="5.80" fill="#ffffff" stroke="#3f3f3f" stroke-width="0.3" transform="rotate(-90.0 36.40 103.00)"/>
<rect x="50.66" y="65.73" width="5.80" height="5.80" fill="#ffffff" stroke="#3f3f3f" stroke-width="0.3" transform="rotate(-39.7 53.56 68.63)"/>
<line x1="39.00" y1="103.00" x2="39.00" y2="118.00" stroke="#8a8a8a" stroke-width="0.15" stroke-dasharray="0.8 0.8"/>
<line x1="151.00" y1="103.00" x2="151.00" y2="118.00" stroke="#8a8a8a" stroke-width="0.15" stroke-dasharray="0.8 0.8"/>
<line x1="39.00" y1="117.00" x2="151.00" y2="117.00" stroke="#8a8a8a" stroke-width="0.15"/>
<line x1="38.10" y1="117.90" x2="39.90" y2="116.10" stroke="#3f3f3f" stroke-width="0.24"/>
<line x1="150.10" y1="117.90" x2="151.90" y2="116.10" stroke="#3f3f3f" stroke-width="0.24"/>
<text x="95.00" y="115.60" font-family="Georgia, 'Times New Roman', serif" font-size="3.2" fill="#3f3f3f" text-anchor="middle">56 mm</text>
<line x1="95.00" y1="57.00" x2="95.00" y2="149.00" stroke="#8a8a8a" stroke-width="0.15"/>
<line x1="94.10" y1="57.90" x2="95.90" y2="56.10" stroke="#3f3f3f" stroke-width="0.24"/>
<line x1="94.10" y1="149.90" x2="95.90" y2="148.10" stroke="#3f3f3f" stroke-width="0.24"/>
<text x="96.80" y="104.10" font-family="Georgia, 'Times New Roman', serif" font-size="3.2" fill="#3f3f3f" text-anchor="start">46 mm</text>
<text x="95.00" y="166.20" font-family="Georgia, 'Times New Roman', serif" font-size="3.6" fill="#3f3f3f" text-anchor="middle" letter-spacing="1.2">FACE VIEW</text>
<text x="95.00" y="171.20" font-family="Georgia, 'Times New Roman', serif" font-size="2.8" fill="#8a8a8a" text-anchor="middle">8 × 2.9 mm princess, evenly spaced on the band centerline</text>
<rect x="213.70" y="92.20" width="36.60" height="15.60" fill="url(#hatch)" stroke="#3f3f3f" stroke-width="0.3"/>
<polygon points="225.91,88.60 238.09,88.60 240.70,92.20 232.00,100.60 223.30,92.20" fill="#ffffff" stroke="#3f3f3f" stroke-width="0.3"/>
<line x1="223.30" y1="92.20" x2="240.70" y2="92.20" stroke="#3f3f3f" stroke-width="0.3"/>
<line x1="223.30" y1="92.20" x2="223.30" y2="82.60" stroke="#8a8a8a" stroke-width="0.15" stroke-dasharray="0.8 0.8"/>
<line x1="240.70" y1="92.20" x2="240.70" y2="82.60" stroke="#8a8a8a" stroke-width="0.15" stroke-dasharray="0.8 0.8"/>
<line x1="223.30" y1="83.60" x2="240.70" y2="83.60" stroke="#8a8a8a" stroke-width="0.15"/>
<line x1="222.40" y1="84.50" x2="224.20" y2="82.70" stroke="#3f3f3f" stroke-width="0.24"/>
<line x1="239.80" y1="84.50" x2="241.60" y2="82.70" stroke="#3f3f3f" stroke-width="0.24"/>
<text x="232.00" y="82.20" font-family="Georgia, 'Times New Roman', serif" font-size="3.2" fill="#3f3f3f" text-anchor="middle">2.9 mm</text>
<line x1="213.70" y1="107.80" x2="213.70" y2="114.80" stroke="#8a8a8a" stroke-width="0.15" stroke-dasharray="0.8 0.8"/>
<line x1="250.30" y1="107.80" x2="250.30" y2="114.80" stroke="#8a8a8a" stroke-width="0.15" stroke-dasharray="0.8 0.8"/>
<line x1="213.70" y1="113.80" x2="250.30" y2="113.80" stroke="#8a8a8a" stroke-width="0.15"/>
<line x1="212.80" y1="114.70" x2="214.60" y2="112.90" stroke="#3f3f3f" stroke-width="0.24"/>
<line x1="249.40" y1="114.70" x2="251.20" y2="112.90" stroke="#3f3f3f" stroke-width="0.24"/>
<text x="232.00" y="112.40" font-family="Georgia, 'Times New Roman', serif" font-size="3.2" fill="#3f3f3f" text-anchor="middle">6.1 mm</text>
<line x1="250.30" y1="92.20" x2="257.30" y2="92.20" stroke="#8a8a8a" stroke-width="0.15" stroke-dasharray="0.8 0.8"/>
<line x1="250.30" y1="107.80" x2="257.30" y2="107.80" stroke="#8a8a8a" stroke-width="0.15" stroke-dasharray="0.8 0.8"/>
<line x1="256.30" y1="92.20" x2="256.30" y2="107.80" stroke="#8a8a8a" stroke-width="0.15"/>
<line x1="255.40" y1="93.10" x2="257.20" y2="91.30" stroke="#3f3f3f" stroke-width="0.24"/>
<line x1="255.40" y1="108.70" x2="257.20" y2="106.90" stroke="#3f3f3f" stroke-width="0.24"/>
<text x="258.10" y="101.10" font-family="Georgia, 'Times New Roman', serif" font-size="3.2" fill="#3f3f3f" text-anchor="start">2.6 mm</text>
<text x="232.00" y="122.80" font-family="Georgia, 'Times New Roman', serif" font-size="3.6" fill="#3f3f3f" text-anchor="middle" letter-spacing="1.2">SECTION — 6:1</text>
<rect x="189.00" y="162.00" width="100" height="40" fill="none" stroke="#3f3f3f" stroke-width="0.3"/>
<line x1="189.00" y1="170.00" x2="289.00" y2="170.00" stroke="#3f3f3f" stroke-width="0.15"/>
<text x="192.00" y="167.80" font-family="Georgia, 'Times New Roman', serif" font-size="4.0" fill="#3f3f3f" text-anchor="start" letter-spacing="2.0">FACETTA</text>
<text x="192.00" y="175.60" font-family="Georgia, 'Times New Roman', serif" font-size="4.2" fill="#3f3f3f" text-anchor="start" font-weight="bold">dsn_bangle  ·  v1</text>
<text x="192.00" y="180.20" font-family="Georgia, 'Times New Roman', serif" font-size="3.2" fill="#3f3f3f" text-anchor="start">0.14 ct diamond, princess</text>
<text x="192.00" y="184.80" font-family="Georgia, 'Times New Roman', serif" font-size="3.2" fill="#3f3f3f" text-anchor="start">18k yellow gold, high polish</text>
<text x="192.00" y="189.40" font-family="Georgia, 'Times New Roman', serif" font-size="3.2" fill="#3f3f3f" text-anchor="start">F  ·  VS1</text>
<text x="192.00" y="194.00" font-family="Georgia, 'Times New Roman', serif" font-size="3.0" fill="#3f3f3f" text-anchor="start">designer usr_ana  ·  2026-07-02</text>
<text x="192.00" y="198.60" font-family="Georgia, 'Times New Roman', serif" font-size="3.0" fill="#3f3f3f" text-anchor="start">UNITS mm  ·  SCALE 2:1</text>
<text x="12.00" y="198.00" font-family="Georgia, 'Times New Roman', serif" font-size="3.0" fill="#3f3f3f" text-anchor="start">NOTES: Hinged oval bangle; stations flush-set, screw-motif free.</text>
</svg>
