<svg xmlns="http://www.w3.org/2000/svg" viewBox="0 0 297 210" width="297mm" height="210mm" font-family="Georgia, 'Times New Roman', serif">
<defs><pattern id="hatch" width="1.4" height="1.4" patternTransform="rotate(45)" patternUnits="userSpaceOnUse"><line x1="0" y1="0" x2="0" y2="1.4" stroke="#8a8a8a" stroke-width="0.12"/></pattern></defs>
<rect x="0" y="0" width="297" height="210" fill="#fdfdfa"/>
<rect x="8" y="8" width="281" height="194" fill="none" stroke="#3f3f3f" stroke-width="0.3"/>
<text x="148.50" y="16.00" font-family="Georgia, 'Times New Roman', serif" font-size="4.6" fill="#3f3f3f" text-anchor="middle" letter-spacing="1.6">TECHNICAL SHEET — SOLITAIRE RING</text>
<line x1="11.00" y1="19.50" x2="286.00" y2="19.50" stroke="#8a8a8a" stroke-width="0.15"/>
<line x1="11.00" y1="105.00" x2="286.00" y2="105.00" stroke="#8a8a8a" stroke-width="0.15" stroke-dasharray="6 1.5 1 1.5"/>
<rect x="55.30" y="74.85" width="5.40" height="60.30" rx="2.70" fill="url(#hatch)" stroke="#3f3f3f" stroke-width="0.3"/>
<polygon points="48.40,105.00 49.61,98.75 52.28,94.66 52.30,94.65 55.18,92.68 55.19,92.67 58.00,92.10 58.00,92.10 58.00,92.10 60.81,92.67 60.82,92.68 63.70,94.65 63.72,94.66 66.39,98.75 67.60,105.00 66.39,111.25 63.72,115.34 63.70,115.35 60.82,117.32 60.81,117.33 58.00,117.90 58.00,117.90 58.00,117.90 55.19,117.33 55.18,117.32 52.30,115.35 52.28,115.34 49.61,111.25" fill="#ffffff" stroke="#3f3f3f" stroke-width="0.3"/>
<polygon points="60.53,94.84 60.06,96.75 58.00,97.14 55.94,96.75 55.47,94.84 55.58,94.28 58.00,92.10 60.42,94.28" fill="none" stroke="#3f3f3f" stroke-width="0.15"/>
<polygon points="63.72,94.66 63.72,94.66 64.40,100.18 64.07,100.81 61.86,99.28 60.06,96.75 60.53,94.84 63.70,94.65" fill="none" stroke="#3f3f3f" stroke-width="0.15"/>
<polygon points="67.60,105.00 67.60,105.00 67.60,105.00 64.14,108.72 63.57,105.00 64.14,101.28" fill="none" stroke="#3f3f3f" stroke-width="0.15"/>
<polygon points="64.07,109.19 64.40,109.82 63.72,115.34 63.72,115.34 63.70,115.35 60.53,115.16 60.06,113.25 61.86,110.72" fill="none" stroke="#3f3f3f" stroke-width="0.15"/>
<polygon points="60.06,113.25 60.53,115.16 60.42,115.72 58.00,117.90 55.58,115.72 55.47,115.16 55.94,113.25 58.00,112.86" fill="none" stroke="#3f3f3f" stroke-width="0.15"/>
<polygon points="55.94,113.25 55.47,115.16 52.30,115.35 52.28,115.34 52.28,115.34 51.60,109.82 51.93,109.19 54.14,110.72" fill="none" stroke="#3f3f3f" stroke-width="0.15"/>
<polygon points="51.86,108.72 48.40,105.00 48.40,105.00 48.40,105.00 51.86,101.28 52.43,105.00" fill="none" stroke="#3f3f3f" stroke-width="0.15"/>
<polygon points="55.47,94.84 55.94,96.75 54.14,99.28 51.93,100.81 51.60,100.18 52.28,94.66 52.28,94.66 52.30,94.65" fill="none" stroke="#3f3f3f" stroke-width="0.15"/>
<polygon points="60.81,92.67 60.82,92.68 60.42,94.28 58.00,92.10 58.00,92.10 58.00,92.10" fill="none" stroke="#3f3f3f" stroke-width="0.15"/>
<polygon points="63.70,94.65 60.53,94.84 60.42,94.28 60.82,92.68" fill="none" stroke="#3f3f3f" stroke-width="0.15"/>
<polygon points="66.39,98.75 66.39,98.75 64.40,100.18 63.72,94.66" fill="none" stroke="#3f3f3f" stroke-width="0.15"/>
<polygon points="66.39,98.75 67.60,105.00 64.14,101.28 64.07,100.81 64.40,100.18" fill="none" stroke="#3f3f3f" stroke-width="0.15"/>
<polygon points="67.60,105.00 66.39,111.25 64.40,109.82 64.07,109.19 64.14,108.72" fill="none" stroke="#3f3f3f" stroke-width="0.15"/>
<polygon points="66.39,111.25 66.39,111.25 63.72,115.34 64.40,109.82" fill="none" stroke="#3f3f3f" stroke-width="0.15"/>
<polygon points="63.70,115.35 60.82,117.32 60.42,115.72 60.53,115.16" fill="none" stroke="#3f3f3f" stroke-width="0.15"/>
<polygon points="60.42,115.72 60.82,117.32 60.81,117.33 58.00,117.90 58.00,117.90 58.00,117.90" fill="none" stroke="#3f3f3f" stroke-width="0.15"/>
<polygon points="58.00,117.90 58.00,117.90 55.19,117.33 55.18,117.32 55.58,115.72" fill="none" stroke="#3f3f3f" stroke-width="0.15"/>
<polygon points="55.47,115.16 55.58,115.72 55.18,117.32 52.30,115.35" fill="none" stroke="#3f3f3f" stroke-width="0.15"/>
<polygon points="51.60,109.82 52.28,115.34 49.61,111.25 49.61,111.25" fill="none" stroke="#3f3f3f" stroke-width="0.15"/>
<polygon points="51.93,109.19 51.60,109.82 49.61,111.25 48.40,105.00 51.86,108.72" fill="none" stroke="#3f3f3f" stroke-width="0.15"/>
<polygon points="51.60,100.18 51.93,100.81 51.86,101.28 48.40,105.00 49.61,98.75" fill="none" stroke="#3f3f3f" stroke-width="0.15"/>
<polygon points="52.28,94.66 51.60,100.18 49.61,98.75 49.61,98.75" fill="none" stroke="#3f3f3f" stroke-width="0.15"/>
<polygon points="55.58,94.28 55.47,94.84 52.30,94.65 55.18,92.68" fill="none" stroke="#3f3f3f" stroke-width="0.15"/>
<polygon points="58.00,92.10 58.00,92.10 55.58,94.28 55.18,92.68 55.19,92.67" fill="none" stroke="#3f3f3f" stroke-width="0.15"/>
<polygon points="60.06,96.75 61.86,99.28 61.48,99.83 58.00,98.36 58.00,97.14" fill="none" stroke="#3f3f3f" stroke-width="0.15"/>
<polygon points="61.86,99.28 64.07,100.81 64.14,101.28 63.57,105.00 63.57,105.00 61.48,99.83" fill="none" stroke="#3f3f3f" stroke-width="0.15"/>
<polygon points="63.57,105.00 64.14,108.72 64.07,109.19 61.86,110.72 61.48,110.17 63.57,105.00" fill="none" stroke="#3f3f3f" stroke-width="0.15"/>
<polygon points="61.48,110.17 61.86,110.72 60.06,113.25 58.00,112.86 58.00,111.64" fill="none" stroke="#3f3f3f" stroke-width="0.15"/>
<polygon points="58.00,111.64 58.00,112.86 55.94,113.25 54.14,110.72 54.52,110.17" fill="none" stroke="#3f3f3f" stroke-width="0.15"/>
<polygon points="54.52,110.17 54.14,110.72 51.93,109.19 51.86,108.72 52.43,105.00 52.43,105.00" fill="none" stroke="#3f3f3f" stroke-width="0.15"/>
<polygon points="52.43,105.00 52.43,105.00 51.86,101.28 51.93,100.81 54.14,99.28 54.52,99.83" fill="none" stroke="#3f3f3f" stroke-width="0.15"/>
<polygon points="58.00,97.14 58.00,98.36 54.52,99.83 54.14,99.28 55.94,96.75" fill="none" stroke="#3f3f3f" stroke-width="0.15"/>
<polygon points="61.48,99.83 63.57,105.00 61.48,110.17 58.00,111.64 54.52,110.17 52.43,105.00 54.52,99.83 58.00,98.36" fill="none" stroke="#3f3f3f" stroke-width="0.15"/>
<line x1="58.00" y1="89.10" x2="58.00" y2="120.90" stroke="#8a8a8a" stroke-width="0.15" stroke-dasharray="3 1 0.5 1"/>
<line x1="45.40" y1="105.00" x2="70.60" y2="105.00" stroke="#8a8a8a" stroke-width="0.15" stroke-dasharray="3 1 0.5 1"/>
<circle cx="64.79" cy="114.12" r="1.35" fill="#ffffff" stroke="#3f3f3f" stroke-width="0.3"/>
<circle cx="51.21" cy="114.12" r="1.35" fill="#ffffff" stroke="#3f3f3f" stroke-width="0.3"/>
<circle cx="51.21" cy="95.88" r="1.35" fill="#ffffff" stroke="#3f3f3f" stroke-width="0.3"/>
<circle cx="64.79" cy="95.88" r="1.35" fill="#ffffff" stroke="#3f3f3f" stroke-width="0.3"/>
<line x1="48.40" y1="105.00" x2="48.40" y2="84.10" stroke="#8a8a8a" stroke-width="0.15" stroke-dasharray="0.8 0.8"/>
<line x1="67.60" y1="105.00" x2="67.60" y2="84.10" stroke="#8a8a8a" stroke-width="0.15" stroke-dasharray="0.8 0.8"/>
<line x1="48.40" y1="85.10" x2="67.60" y2="85.10" stroke="#8a8a8a" stroke-width="0.15"/>
<line x1="47.50" y1="86.00" x2="49.30" y2="84.20" stroke="#3f3f3f" stroke-width="0.24"/>
<line x1="66.70" y1="86.00" x2="68.50" y2="84.20" stroke="#3f3f3f" stroke-width="0.24"/>
<text x="58.00" y="83.70" font-family="Georgia, 'Times New Roman', serif" font-size="3.2" fill="#3f3f3f" text-anchor="middle" stroke="#fdfdfa" stroke-width="1.0" stroke-linejoin="round" paint-order="stroke">6.4 mm</text>
<line x1="58.00" y1="92.10" x2="76.60" y2="92.10" stroke="#8a8a8a" stroke-width="0.15" stroke-dasharray="0.8 0.8"/>
<line x1="58.00" y1="117.90" x2="76.60" y2="117.90" stroke="#8a8a8a" stroke-width="0.15" stroke-dasharray="0.8 0.8"/>
<line x1="75.60" y1="92.10" x2="75.60" y2="117.90" stroke="#8a8a8a" stroke-width="0.15"/>
<line x1="74.70" y1="93.00" x2="76.50" y2="91.20" stroke="#3f3f3f" stroke-width="0.24"/>
<line x1="74.70" y1="118.80" x2="76.50" y2="117.00" stroke="#3f3f3f" stroke-width="0.24"/>
<text x="77.40" y="106.10" font-family="Georgia, 'Times New Roman', serif" font-size="3.2" fill="#3f3f3f" text-anchor="start" stroke="#fdfdfa" stroke-width="1.0" stroke-linejoin="round" paint-order="stroke">8.6 mm</text>
<line x1="55.30" y1="132.45" x2="55.30" y2="141.15" stroke="#8a8a8a" stroke-width="0.15" stroke-dasharray="0.8 0.8"/>
<line x1="60.70" y1="132.45" x2="60.70" y2="141.15" stroke="#8a8a8a" stroke-width="0.15" stroke-dasharray="0.8 0.8"/>
<line x1="55.30" y1="140.15" x2="60.70" y2="140.15" stroke="#8a8a8a" stroke-width="0.15"/>
<line x1="54.40" y1="141.05" x2="56.20" y2="139.25" stroke="#3f3f3f" stroke-width="0.24"/>
<line x1="59.80" y1="141.05" x2="61.60" y2="139.25" stroke="#3f3f3f" stroke-width="0.24"/>
<text x="58.00" y="138.75" font-family="Georgia, 'Times New Roman', serif" font-size="3.2" fill="#3f3f3f" text-anchor="middle" stroke="#fdfdfa" stroke-width="1.0" stroke-linejoin="round" paint-order="stroke">1.8 mm</text>
<text x="58.00" y="149.15" font-family="Georgia, 'Times New Roman', serif" font-size="3.6" fill="#3f3f3f" text-anchor="middle" letter-spacing="1.2">TOP VIEW</text>
<rect x="135.30" y="74.85" width="5.40" height="60.30" rx="2.70" fill="url(#hatch)" stroke="#3f3f3f" stroke-width="0.3"/>
<line x1="135.30" y1="77.55" x2="128.40" y2="61.35" stroke="#3f3f3f" stroke-width="0.3"/>
<line x1="140.70" y1="77.55" x2="147.60" y2="61.35" stroke="#3f3f3f" stroke-width="0.3"/>
<polygon points="132.72,57.25 143.28,57.25 147.60,61.35 138.00,69.55 128.40,61.35" fill="#ffffff" stroke="#3f3f3f" stroke-width="0.3"/>
<line x1="128.40" y1="61.35" x2="147.60" y2="61.35" stroke="#3f3f3f" stroke-width="0.3"/>
<line x1="138.00" y1="54.25" x2="138.00" y2="138.15" stroke="#8a8a8a" stroke-width="0.15" stroke-dasharray="3 1 0.5 1"/>
<line x1="127.73" y1="63.35" x2="127.73" y2="58.25" stroke="#3f3f3f" stroke-width="0.3"/>
<circle cx="127.73" cy="58.25" r="1.35" fill="#ffffff" stroke="#3f3f3f" stroke-width="0.3"/>
<line x1="148.28" y1="63.35" x2="148.28" y2="58.25" stroke="#3f3f3f" stroke-width="0.3"/>
<circle cx="148.28" cy="58.25" r="1.35" fill="#ffffff" stroke="#3f3f3f" stroke-width="0.3"/>
<line x1="143.28" y1="57.25" x2="157.60" y2="57.25" stroke="#8a8a8a" stroke-width="0.15" stroke-dasharray="0.8 0.8"/>
<line x1="138.00" y1="74.85" x2="157.60" y2="74.85" stroke="#8a8a8a" stroke-width="0.15" stroke-dasharray="0.8 0.8"/>
<line x1="156.60" y1="57.25" x2="156.60" y2="74.85" stroke="#8a8a8a" stroke-width="0.15"/>
<line x1="155.70" y1="58.15" x2="157.50" y2="56.35" stroke="#3f3f3f" stroke-width="0.24"/>
<line x1="155.70" y1="75.75" x2="157.50" y2="73.95" stroke="#3f3f3f" stroke-width="0.24"/>
<text x="158.40" y="67.15" font-family="Georgia, 'Times New Roman', serif" font-size="3.2" fill="#3f3f3f" text-anchor="start" stroke="#fdfdfa" stroke-width="1.0" stroke-linejoin="round" paint-order="stroke">5.9 mm rise</text>
<line x1="135.30" y1="132.45" x2="135.30" y2="142.15" stroke="#8a8a8a" stroke-width="0.15" stroke-dasharray="0.8 0.8"/>
<line x1="140.70" y1="132.45" x2="140.70" y2="142.15" stroke="#8a8a8a" stroke-width="0.15" stroke-dasharray="0.8 0.8"/>
<line x1="135.30" y1="141.15" x2="140.70" y2="141.15" stroke="#8a8a8a" stroke-width="0.15"/>
<line x1="134.40" y1="142.05" x2="136.20" y2="140.25" stroke="#3f3f3f" stroke-width="0.24"/>
<line x1="139.80" y1="142.05" x2="141.60" y2="140.25" stroke="#3f3f3f" stroke-width="0.24"/>
<text x="138.00" y="139.75" font-family="Georgia, 'Times New Roman', serif" font-size="3.2" fill="#3f3f3f" text-anchor="middle" stroke="#fdfdfa" stroke-width="1.0" stroke-linejoin="round" paint-order="stroke">1.8 mm</text>
<text x="138.00" y="149.15" font-family="Georgia, 'Times New Roman', serif" font-size="3.6" fill="#3f3f3f" text-anchor="middle" letter-spacing="1.2">FRONT VIEW</text>
<circle cx="208.00" cy="105.00" r="30.15" fill="url(#hatch)" stroke="#3f3f3f" stroke-width="0.3"/>
<circle cx="208.00" cy="105.00" r="25.35" fill="#ffffff" stroke="#3f3f3f" stroke-width="0.3"/>
<line x1="199.56" y1="76.05" x2="195.10" y2="61.35" stroke="#3f3f3f" stroke-width="0.3"/>
<line x1="216.44" y1="76.05" x2="220.90" y2="61.35" stroke="#3f3f3f" stroke-width="0.3"/>
<polygon points="200.91,57.25 215.09,57.25 220.90,61.35 208.00,69.55 195.10,61.35" fill="#ffffff" stroke="#3f3f3f" stroke-width="0.3"/>
<line x1="195.10" y1="61.35" x2="220.90" y2="61.35" stroke="#3f3f3f" stroke-width="0.3"/>
<line x1="208.00" y1="54.25" x2="208.00" y2="138.15" stroke="#8a8a8a" stroke-width="0.15" stroke-dasharray="3 1 0.5 1"/>
<line x1="194.42" y1="63.35" x2="194.42" y2="58.25" stroke="#3f3f3f" stroke-width="0.3"/>
<circle cx="194.42" cy="58.25" r="1.35" fill="#ffffff" stroke="#3f3f3f" stroke-width="0.3"/>
<line x1="221.58" y1="63.35" x2="221.58" y2="58.25" stroke="#3f3f3f" stroke-width="0.3"/>
<circle cx="221.58" cy="58.25" r="1.35" fill="#ffffff" stroke="#3f3f3f" stroke-width="0.3"/>
<line x1="182.65" y1="105.00" x2="233.35" y2="105.00" stroke="#8a8a8a" stroke-width="0.15"/>
<line x1="181.75" y1="105.90" x2="183.55" y2="104.10" stroke="#3f3f3f" stroke-width="0.24"/>
<line x1="232.45" y1="105.90" x2="234.25" y2="104.10" stroke="#3f3f3f" stroke-width="0.24"/>
<text x="208.00" y="103.60" font-family="Georgia, 'Times New Roman', serif" font-size="3.2" fill="#3f3f3f" text-anchor="middle" stroke="#fdfdfa" stroke-width="1.0" stroke-linejoin="round" paint-order="stroke">⌀ 16.9 mm</text>
<line x1="220.90" y1="61.35" x2="248.15" y2="61.35" stroke="#8a8a8a" stroke-width="0.15" stroke-dasharray="0.8 0.8"/>
<line x1="208.00" y1="74.85" x2="248.15" y2="74.85" stroke="#8a8a8a" stroke-width="0.15" stroke-dasharray="0.8 0.8"/>
<line x1="247.15" y1="61.35" x2="247.15" y2="74.85" stroke="#8a8a8a" stroke-width="0.15"/>
<line x1="246.25" y1="62.25" x2="248.05" y2="60.45" stroke="#3f3f3f" stroke-width="0.24"/>
<line x1="246.25" y1="75.75" x2="248.05" y2="73.95" stroke="#3f3f3f" stroke-width="0.24"/>
<text x="248.95" y="69.20" font-family="Georgia, 'Times New Roman', serif" font-size="3.2" fill="#3f3f3f" text-anchor="start" stroke="#fdfdfa" stroke-width="1.0" stroke-linejoin="round" paint-order="stroke">4.5 mm gallery</text>
<line x1="215.09" y1="57.25" x2="274.15" y2="57.25" stroke="#8a8a8a" stroke-width="0.15" stroke-dasharray="0.8 0.8"/>
<line x1="208.00" y1="69.55" x2="274.15" y2="69.55" stroke="#8a8a8a" stroke-width="0.15" stroke-dasharray="0.8 0.8"/>
<line x1="273.15" y1="57.25" x2="273.15" y2="69.55" stroke="#8a8a8a" stroke-width="0.15"/>
<line x1="272.25" y1="58.15" x2="274.05" y2="56.35" stroke="#3f3f3f" stroke-width="0.24"/>
<line x1="272.25" y1="70.45" x2="274.05" y2="68.65" stroke="#3f3f3f" stroke-width="0.24"/>
<text x="274.95" y="64.50" font-family="Georgia, 'Times New Roman', serif" font-size="3.2" fill="#3f3f3f" text-anchor="start" stroke="#fdfdfa" stroke-width="1.0" stroke-linejoin="round" paint-order="stroke">4.1 mm</text>
<text x="208.00" y="147.15" font-family="Georgia, 'Times New Roman', serif" font-size="3.6" fill="#3f3f3f" text-anchor="middle" letter-spacing="1.2">SIDE PROFILE</text>
<rect x="189.00" y="162.00" width="100" height="40" fill="none" stroke="#3f3f3f" stroke-width="0.3"/>
<line x1="189.00" y1="170.00" x2="289.00" y2="170.00" stroke="#3f3f3f" stroke-width="0.15"/>
<text x="192.00" y="167.80" font-family="Georgia, 'Times New Roman', serif" font-size="4.0" fill="#3f3f3f" text-anchor="start" letter-spacing="2.0">FACETTA</text>
<text x="192.00" y="175.60" font-family="Georgia, 'Times New Roman', serif" font-size="4.2" fill="#3f3f3f" text-anchor="start" font-weight="bold">dsn_8Kx2  ·  v3</text>
<text x="192.00" y="180.20" font-family="Georgia, 'Times New Roman', serif" font-size="3.2" fill="#3f3f3f" text-anchor="start">2.00 ct sapphire, oval brilliant</text>
<text x="192.00" y="184.80" font-family="Georgia, 'Times New Roman', serif" font-size="3.2" fill="#3f3f3f" text-anchor="start">18k yellow gold, high polish</text>
<text x="192.00" y="189.40" font-family="Georgia, 'Times New Roman', serif" font-size="3.2" fill="#3f3f3f" text-anchor="start">Royal Blue  ·  VS</text>
<text x="192.00" y="194.00" font-family="Georgia, 'Times New Roman', serif" font-size="3.0" fill="#3f3f3f" text-anchor="start">designer usr_ana  ·  2026-07-02</text>
<text x="192.00" y="198.60" font-family="Georgia, 'Times New Roman', serif" font-size="3.0" fill="#3f3f3f" text-anchor="start">UNITS mm  ·  SCALE 3:1  ·  EST. 2.6 g</text>
<line x1="8.00" y1="194.00" x2="189.00" y2="194.00" stroke="#8a8a8a" stroke-width="0.15"/>
<text x="12.00" y="199.00" font-family="Georgia, 'Times New Roman', serif" font-size="2.8" fill="#3f3f3f" text-anchor="start" letter-spacing="1.4">KEY</text>
<line x1="26.00" y1="198.00" x2="34.00" y2="198.00" stroke="#3f3f3f" stroke-width="0.3"/>
<text x="36.00" y="199.00" font-family="Georgia, 'Times New Roman', serif" font-size="2.6" fill="#8a8a8a" text-anchor="start">edge</text>
<line x1="60.00" y1="198.00" x2="68.00" y2="198.00" stroke="#8a8a8a" stroke-width="0.15" stroke-dasharray="0.9 0.9"/>
<text x="70.00" y="199.00" font-family="Georgia, 'Times New Roman', serif" font-size="2.6" fill="#8a8a8a" text-anchor="start">witness</text>
<line x1="92.00" y1="198.00" x2="100.00" y2="198.00" stroke="#8a8a8a" stroke-width="0.15" stroke-dasharray="6 1.5 1 1.5"/>
<text x="102.00" y="199.00" font-family="Georgia, 'Times New Roman', serif" font-size="2.6" fill="#8a8a8a" text-anchor="start">centerline</text>
<rect x="122.00" y="196.50" width="8" height="3" fill="url(#hatch)" stroke="#3f3f3f" stroke-width="0.15"/>
<text x="132.00" y="199.00" font-family="Georgia, 'Times New Roman', serif" font-size="2.6" fill="#8a8a8a" text-anchor="start">metal section</text>
<text x="185.00" y="199.00" font-family="Georgia, 'Times New Roman', serif" font-size="2.6" fill="#8a8a8a" text-anchor="end">all dimensions in mm</text>
<text x="12.00" y="191.50" font-family="Georgia, 'Times New Roman', serif" font-size="3.0" fill="#3f3f3f" text-anchor="start">NOTES: Slightly higher gallery to clear a future wedding band.</text>
</svg>
