<svg xmlns="http://www.w3.org/2000/svg" viewBox="0 0 297 210" width="297mm" height="210mm" font-family="Georgia, 'Times New Roman', serif">
<defs><pattern id="hatch" width="1.4" height="1.4" patternTransform="rotate(45)" patternUnits="userSpaceOnUse"><line x1="0" y1="0" x2="0" y2="1.4" stroke="#8a8a8a" stroke-width="0.12"/></pattern></defs>
<rect x="0" y="0" width="297" height="210" fill="#fdfdfa"/>
<rect x="8" y="8" width="281" height="194" fill="none" stroke="#3f3f3f" stroke-width="0.3"/>
<text x="148.50" y="16.00" font-family="Georgia, 'Times New Roman', serif" font-size="4.6" fill="#3f3f3f" text-anchor="middle" letter-spacing="1.6">TECHNICAL SHEET — PENDANT NECKLACE</text>
<line x1="11.00" y1="105.00" x2="286.00" y2="105.00" stroke="#8a8a8a" stroke-width="0.15" stroke-dasharray="6 1.5 1 1.5"/>
<circle cx="100.00" cy="72.45" r="8.25" fill="#ffffff" stroke="#3f3f3f" stroke-width="0.3"/>
<circle cx="100.00" cy="72.45" r="5.25" fill="#ffffff" stroke="#3f3f3f" stroke-width="0.3"/>
<circle cx="100.00" cy="82.20" r="1.50" fill="#ffffff" stroke="#3f3f3f" stroke-width="0.3"/>
<circle cx="100.00" cy="87.15" r="3.45" fill="#ffffff" stroke="#3f3f3f" stroke-width="0.3"/>
<circle cx="107.42" cy="89.54" r="3.45" fill="#ffffff" stroke="#3f3f3f" stroke-width="0.3"/>
<circle cx="112.86" cy="96.08" r="3.45" fill="#ffffff" stroke="#3f3f3f" stroke-width="0.3"/>
<circle cx="114.85" cy="105.00" r="3.45" fill="#ffffff" stroke="#3f3f3f" stroke-width="0.3"/>
<circle cx="112.86" cy="113.92" r="3.45" fill="#ffffff" stroke="#3f3f3f" stroke-width="0.3"/>
<circle cx="107.42" cy="120.46" r="3.45" fill="#ffffff" stroke="#3f3f3f" stroke-width="0.3"/>
<circle cx="100.00" cy="122.85" r="3.45" fill="#ffffff" stroke="#3f3f3f" stroke-width="0.3"/>
<circle cx="92.58" cy="120.46" r="3.45" fill="#ffffff" stroke="#3f3f3f" stroke-width="0.3"/>
<circle cx="87.14" cy="113.93" r="3.45" fill="#ffffff" stroke="#3f3f3f" stroke-width="0.3"/>
<circle cx="85.15" cy="105.00" r="3.45" fill="#ffffff" stroke="#3f3f3f" stroke-width="0.3"/>
<circle cx="87.14" cy="96.08" r="3.45" fill="#ffffff" stroke="#3f3f3f" stroke-width="0.3"/>
<circle cx="92.57" cy="89.54" r="3.45" fill="#ffffff" stroke="#3f3f3f" stroke-width="0.3"/>
<polygon points="93.28,91.50 106.72,91.50 110.50,95.28 110.50,114.72 106.72,118.50 93.28,118.50 89.50,114.72 89.50,95.28" fill="#ffffff" stroke="#3f3f3f" stroke-width="0.3"/>
<polygon points="94.30,93.55 105.70,93.55 108.90,96.76 108.90,113.24 105.70,116.45 94.30,116.45 91.10,113.24 91.10,96.76" fill="none" stroke="#3f3f3f" stroke-width="0.15"/>
<polygon points="95.12,95.19 104.88,95.19 107.63,97.94 107.63,112.06 104.88,114.81 95.12,114.81 92.37,112.06 92.37,97.94" fill="none" stroke="#3f3f3f" stroke-width="0.15"/>
<polygon points="95.83,96.63 104.17,96.63 106.51,98.97 106.51,111.03 104.17,113.37 95.83,113.37 93.49,111.03 93.49,98.97" fill="none" stroke="#3f3f3f" stroke-width="0.15"/>
<line x1="93.28" y1="91.50" x2="95.83" y2="96.63" stroke="#3f3f3f" stroke-width="0.15"/>
<line x1="106.72" y1="91.50" x2="104.17" y2="96.63" stroke="#3f3f3f" stroke-width="0.15"/>
<line x1="110.50" y1="95.28" x2="106.51" y2="98.97" stroke="#3f3f3f" stroke-width="0.15"/>
<line x1="110.50" y1="114.72" x2="106.51" y2="111.03" stroke="#3f3f3f" stroke-width="0.15"/>
<line x1="106.72" y1="118.50" x2="104.17" y2="113.37" stroke="#3f3f3f" stroke-width="0.15"/>
<line x1="93.28" y1="118.50" x2="95.83" y2="113.37" stroke="#3f3f3f" stroke-width="0.15"/>
<line x1="89.50" y1="114.72" x2="93.49" y2="111.03" stroke="#3f3f3f" stroke-width="0.15"/>
<line x1="89.50" y1="95.28" x2="93.49" y2="98.97" stroke="#3f3f3f" stroke-width="0.15"/>
<circle cx="100.00" cy="127.80" r="1.50" fill="#ffffff" stroke="#3f3f3f" stroke-width="0.3"/>
<circle cx="100.00" cy="137.55" r="8.25" fill="#ffffff" stroke="#3f3f3f" stroke-width="0.3"/>
<circle cx="100.00" cy="137.55" r="4.54" fill="none" stroke="#8a8a8a" stroke-width="0.15" stroke-dasharray="1 0.8"/>
<line x1="100.00" y1="61.20" x2="100.00" y2="148.80" stroke="#8a8a8a" stroke-width="0.15" stroke-dasharray="3 1 0.5 1"/>
<line x1="89.50" y1="105.00" x2="89.50" y2="58.20" stroke="#8a8a8a" stroke-width="0.15" stroke-dasharray="0.8 0.8"/>
<line x1="110.50" y1="105.00" x2="110.50" y2="58.20" stroke="#8a8a8a" stroke-width="0.15" stroke-dasharray="0.8 0.8"/>
<line x1="89.50" y1="59.20" x2="110.50" y2="59.20" stroke="#8a8a8a" stroke-width="0.15"/>
<line x1="88.60" y1="60.10" x2="90.40" y2="58.30" stroke="#3f3f3f" stroke-width="0.24"/>
<line x1="109.60" y1="60.10" x2="111.40" y2="58.30" stroke="#3f3f3f" stroke-width="0.24"/>
<text x="100.00" y="57.80" font-family="Georgia, 'Times New Roman', serif" font-size="3.2" fill="#3f3f3f" text-anchor="middle">7 mm</text>
<line x1="100.00" y1="91.50" x2="129.30" y2="91.50" stroke="#8a8a8a" stroke-width="0.15" stroke-dasharray="0.8 0.8"/>
<line x1="100.00" y1="118.50" x2="129.30" y2="118.50" stroke="#8a8a8a" stroke-width="0.15" stroke-dasharray="0.8 0.8"/>
<line x1="128.30" y1="91.50" x2="128.30" y2="118.50" stroke="#8a8a8a" stroke-width="0.15"/>
<line x1="127.40" y1="92.40" x2="129.20" y2="90.60" stroke="#3f3f3f" stroke-width="0.24"/>
<line x1="127.40" y1="119.40" x2="129.20" y2="117.60" stroke="#3f3f3f" stroke-width="0.24"/>
<text x="130.10" y="106.10" font-family="Georgia, 'Times New Roman', serif" font-size="3.2" fill="#3f3f3f" text-anchor="start">9 mm</text>
<line x1="100.00" y1="64.20" x2="147.30" y2="64.20" stroke="#8a8a8a" stroke-width="0.15" stroke-dasharray="0.8 0.8"/>
<line x1="100.00" y1="145.80" x2="147.30" y2="145.80" stroke="#8a8a8a" stroke-width="0.15" stroke-dasharray="0.8 0.8"/>
<line x1="146.30" y1="64.20" x2="146.30" y2="145.80" stroke="#8a8a8a" stroke-width="0.15"/>
<line x1="145.40" y1="65.10" x2="147.20" y2="63.30" stroke="#3f3f3f" stroke-width="0.24"/>
<line x1="145.40" y1="146.70" x2="147.20" y2="144.90" stroke="#3f3f3f" stroke-width="0.24"/>
<text x="148.10" y="106.10" font-family="Georgia, 'Times New Roman', serif" font-size="3.2" fill="#3f3f3f" text-anchor="start">27.2 mm drop</text>
<text x="111.25" y="73.45" font-family="Georgia, 'Times New Roman', serif" font-size="2.8" fill="#8a8a8a" text-anchor="start">bail ⌀3.5 mm inside</text>
<text x="100.00" y="157.80" font-family="Georgia, 'Times New Roman', serif" font-size="3.6" fill="#3f3f3f" text-anchor="middle" letter-spacing="1.2">FRONT VIEW</text>
<text x="100.00" y="162.80" font-family="Georgia, 'Times New Roman', serif" font-size="2.8" fill="#8a8a8a" text-anchor="middle">12 × ⌀2.3 mm melee around center</text>
<line x1="91.75" y1="137.55" x2="91.75" y2="151.80" stroke="#8a8a8a" stroke-width="0.15" stroke-dasharray="0.8 0.8"/>
<line x1="108.25" y1="137.55" x2="108.25" y2="151.80" stroke="#8a8a8a" stroke-width="0.15" stroke-dasharray="0.8 0.8"/>
<line x1="91.75" y1="150.80" x2="108.25" y2="150.80" stroke="#8a8a8a" stroke-width="0.15"/>
<line x1="90.85" y1="151.70" x2="92.65" y2="149.90" stroke="#3f3f3f" stroke-width="0.24"/>
<line x1="107.35" y1="151.70" x2="109.15" y2="149.90" stroke="#3f3f3f" stroke-width="0.24"/>
<text x="100.00" y="149.40" font-family="Georgia, 'Times New Roman', serif" font-size="3.2" fill="#3f3f3f" text-anchor="middle">⌀ 5.5 mm</text>
<rect x="223.20" y="64.20" width="3.60" height="16.50" fill="#ffffff" stroke="#3f3f3f" stroke-width="0.3"/>
<rect x="218.25" y="91.50" width="13.50" height="27.00" fill="#ffffff" stroke="#3f3f3f" stroke-width="0.3"/>
<line x1="222.30" y1="91.50" x2="222.30" y2="118.50" stroke="#8a8a8a" stroke-width="0.15"/>
<line x1="218.25" y1="118.50" x2="218.25" y2="124.50" stroke="#8a8a8a" stroke-width="0.15" stroke-dasharray="0.8 0.8"/>
<line x1="231.75" y1="118.50" x2="231.75" y2="124.50" stroke="#8a8a8a" stroke-width="0.15" stroke-dasharray="0.8 0.8"/>
<line x1="218.25" y1="123.50" x2="231.75" y2="123.50" stroke="#8a8a8a" stroke-width="0.15"/>
<line x1="217.35" y1="124.40" x2="219.15" y2="122.60" stroke="#3f3f3f" stroke-width="0.24"/>
<line x1="230.85" y1="124.40" x2="232.65" y2="122.60" stroke="#3f3f3f" stroke-width="0.24"/>
<text x="225.00" y="122.10" font-family="Georgia, 'Times New Roman', serif" font-size="3.2" fill="#3f3f3f" text-anchor="middle">4.5 mm</text>
<rect x="219.90" y="129.30" width="10.20" height="16.50" fill="#ffffff" stroke="#3f3f3f" stroke-width="0.3"/>
<line x1="223.47" y1="129.30" x2="223.47" y2="145.80" stroke="#8a8a8a" stroke-width="0.15"/>
<line x1="219.90" y1="145.80" x2="219.90" y2="151.80" stroke="#8a8a8a" stroke-width="0.15" stroke-dasharray="0.8 0.8"/>
<line x1="230.10" y1="145.80" x2="230.10" y2="151.80" stroke="#8a8a8a" stroke-width="0.15" stroke-dasharray="0.8 0.8"/>
<line x1="219.90" y1="150.80" x2="230.10" y2="150.80" stroke="#8a8a8a" stroke-width="0.15"/>
<line x1="219.00" y1="151.70" x2="220.80" y2="149.90" stroke="#3f3f3f" stroke-width="0.24"/>
<line x1="229.20" y1="151.70" x2="231.00" y2="149.90" stroke="#3f3f3f" stroke-width="0.24"/>
<text x="225.00" y="149.40" font-family="Georgia, 'Times New Roman', serif" font-size="3.2" fill="#3f3f3f" text-anchor="middle">3.4 mm</text>
<line x1="225.00" y1="61.20" x2="225.00" y2="148.80" stroke="#8a8a8a" stroke-width="0.15" stroke-dasharray="3 1 0.5 1"/>
<text x="225.00" y="157.80" font-family="Georgia, 'Times New Roman', serif" font-size="3.6" fill="#3f3f3f" text-anchor="middle" letter-spacing="1.2">SIDE PROFILE</text>
<circle cx="97.40" cy="60.60" r="1.15" fill="#ffffff" stroke="#3f3f3f" stroke-width="0.3"/>
<circle cx="94.80" cy="58.40" r="0.90" fill="#ffffff" stroke="#3f3f3f" stroke-width="0.3"/>
<circle cx="92.20" cy="56.20" r="0.65" fill="#ffffff" stroke="#3f3f3f" stroke-width="0.3"/>
<circle cx="102.60" cy="60.60" r="1.15" fill="#ffffff" stroke="#3f3f3f" stroke-width="0.3"/>
<circle cx="105.20" cy="58.40" r="0.90" fill="#ffffff" stroke="#3f3f3f" stroke-width="0.3"/>
<circle cx="107.80" cy="56.20" r="0.65" fill="#ffffff" stroke="#3f3f3f" stroke-width="0.3"/>
<text x="14.00" y="26.00" font-family="Georgia, 'Times New Roman', serif" font-size="3.4" fill="#3f3f3f" text-anchor="start" letter-spacing="1.2">CHAIN</text>
<text x="14.00" y="31.00" font-family="Georgia, 'Times New Roman', serif" font-size="3.0" fill="#8a8a8a" text-anchor="start">cable · 450 mm · lobster clasp</text>
<rect x="189.00" y="162.00" width="100" height="40" fill="none" stroke="#3f3f3f" stroke-width="0.3"/>
<line x1="189.00" y1="170.00" x2="289.00" y2="170.00" stroke="#3f3f3f" stroke-width="0.15"/>
<text x="192.00" y="167.80" font-family="Georgia, 'Times New Roman', serif" font-size="4.0" fill="#3f3f3f" text-anchor="start" letter-spacing="2.0">FACETTA</text>
<text x="192.00" y="175.60" font-family="Georgia, 'Times New Roman', serif" font-size="4.2" fill="#3f3f3f" text-anchor="start" font-weight="bold">dsn_necklace  ·  v1</text>
<text x="192.00" y="180.20" font-family="Georgia, 'Times New Roman', serif" font-size="3.2" fill="#3f3f3f" text-anchor="start">1.90 ct emerald, emerald cut</text>
<text x="192.00" y="184.80" font-family="Georgia, 'Times New Roman', serif" font-size="3.2" fill="#3f3f3f" text-anchor="start">18k white gold, high polish</text>
<text x="192.00" y="189.40" font-family="Georgia, 'Times New Roman', serif" font-size="3.2" fill="#3f3f3f" text-anchor="start">Muzo Green  ·  VS</text>
<text x="192.00" y="194.00" font-family="Georgia, 'Times New Roman', serif" font-size="3.0" fill="#3f3f3f" text-anchor="start">designer usr_ana  ·  2026-07-02</text>
<text x="192.00" y="198.60" font-family="Georgia, 'Times New Roman', serif" font-size="3.0" fill="#3f3f3f" text-anchor="start">UNITS mm  ·  SCALE 3:1</text>
<text x="12.00" y="198.00" font-family="Georgia, 'Times New Roman', serif" font-size="3.0" fill="#3f3f3f" text-anchor="start">NOTES: Sapphire drop articulated on a jump ring below the cluster.</text>
</svg>
