<svg xmlns="http://www.w3.org/2000/svg" viewBox="0 0 297 210" width="297mm" height="210mm" font-family="Georgia, 'Times New Roman', serif">
<defs><pattern id="hatch" width="1.4" height="1.4" patternTransform="rotate(45)" patternUnits="userSpaceOnUse"><line x1="0" y1="0" x2="0" y2="1.4" stroke="#8a8a8a" stroke-width="0.12"/></pattern></defs>
<rect x="0" y="0" width="297" height="210" fill="#fdfdfa"/>
<rect x="8" y="8" width="281" height="194" fill="none" stroke="#3f3f3f" stroke-width="0.3"/>
<text x="148.50" y="16.00" font-family="Georgia, 'Times New Roman', serif" font-size="4.6" fill="#3f3f3f" text-anchor="middle" letter-spacing="1.6">TECHNICAL SHEET — SOLITAIRE RING</text>
<line x1="11.00" y1="105.00" x2="286.00" y2="105.00" stroke="#8a8a8a" stroke-width="0.15" stroke-dasharray="6 1.5 1 1.5"/>
<rect x="55.30" y="74.85" width="5.40" height="60.30" fill="url(#hatch)" stroke="none"/>
<line x1="55.30" y1="74.85" x2="55.30" y2="135.15" stroke="#3f3f3f" stroke-width="0.3"/>
<line x1="60.70" y1="74.85" x2="60.70" y2="135.15" stroke="#3f3f3f" stroke-width="0.3"/>
<line x1="55.30" y1="74.85" x2="60.70" y2="74.85" stroke="#3f3f3f" stroke-width="0.3"/>
<line x1="55.30" y1="135.15" x2="60.70" y2="135.15" stroke="#3f3f3f" stroke-width="0.3"/>
<ellipse cx="58.00" cy="105.00" rx="9.75" ry="9.75" fill="#ffffff" stroke="#3f3f3f" stroke-width="0.3"/>
<polygon points="63.36,105.00 61.79,108.79 58.00,110.36 54.21,108.79 52.64,105.00 54.21,101.21 58.00,99.64 61.79,101.21" fill="none" stroke="#3f3f3f" stroke-width="0.15"/>
<line x1="63.36" y1="105.00" x2="67.75" y2="105.00" stroke="#3f3f3f" stroke-width="0.15"/>
<line x1="63.36" y1="105.00" x2="64.49" y2="107.69" stroke="#3f3f3f" stroke-width="0.15"/>
<line x1="61.79" y1="108.79" x2="64.49" y2="107.69" stroke="#3f3f3f" stroke-width="0.15"/>
<line x1="64.49" y1="107.69" x2="67.01" y2="108.73" stroke="#3f3f3f" stroke-width="0.15"/>
<line x1="61.79" y1="108.79" x2="64.89" y2="111.89" stroke="#3f3f3f" stroke-width="0.15"/>
<line x1="61.79" y1="108.79" x2="60.69" y2="111.49" stroke="#3f3f3f" stroke-width="0.15"/>
<line x1="58.00" y1="110.36" x2="60.69" y2="111.49" stroke="#3f3f3f" stroke-width="0.15"/>
<line x1="60.69" y1="111.49" x2="61.73" y2="114.01" stroke="#3f3f3f" stroke-width="0.15"/>
<line x1="58.00" y1="110.36" x2="58.00" y2="114.75" stroke="#3f3f3f" stroke-width="0.15"/>
<line x1="58.00" y1="110.36" x2="55.31" y2="111.49" stroke="#3f3f3f" stroke-width="0.15"/>
<line x1="54.21" y1="108.79" x2="55.31" y2="111.49" stroke="#3f3f3f" stroke-width="0.15"/>
<line x1="55.31" y1="111.49" x2="54.27" y2="114.01" stroke="#3f3f3f" stroke-width="0.15"/>
<line x1="54.21" y1="108.79" x2="51.11" y2="111.89" stroke="#3f3f3f" stroke-width="0.15"/>
<line x1="54.21" y1="108.79" x2="51.51" y2="107.69" stroke="#3f3f3f" stroke-width="0.15"/>
<line x1="52.64" y1="105.00" x2="51.51" y2="107.69" stroke="#3f3f3f" stroke-width="0.15"/>
<line x1="51.51" y1="107.69" x2="48.99" y2="108.73" stroke="#3f3f3f" stroke-width="0.15"/>
<line x1="52.64" y1="105.00" x2="48.25" y2="105.00" stroke="#3f3f3f" stroke-width="0.15"/>
<line x1="52.64" y1="105.00" x2="51.51" y2="102.31" stroke="#3f3f3f" stroke-width="0.15"/>
<line x1="54.21" y1="101.21" x2="51.51" y2="102.31" stroke="#3f3f3f" stroke-width="0.15"/>
<line x1="51.51" y1="102.31" x2="48.99" y2="101.27" stroke="#3f3f3f" stroke-width="0.15"/>
<line x1="54.21" y1="101.21" x2="51.11" y2="98.11" stroke="#3f3f3f" stroke-width="0.15"/>
<line x1="54.21" y1="101.21" x2="55.31" y2="98.51" stroke="#3f3f3f" stroke-width="0.15"/>
<line x1="58.00" y1="99.64" x2="55.31" y2="98.51" stroke="#3f3f3f" stroke-width="0.15"/>
<line x1="55.31" y1="98.51" x2="54.27" y2="95.99" stroke="#3f3f3f" stroke-width="0.15"/>
<line x1="58.00" y1="99.64" x2="58.00" y2="95.25" stroke="#3f3f3f" stroke-width="0.15"/>
<line x1="58.00" y1="99.64" x2="60.69" y2="98.51" stroke="#3f3f3f" stroke-width="0.15"/>
<line x1="61.79" y1="101.21" x2="60.69" y2="98.51" stroke="#3f3f3f" stroke-width="0.15"/>
<line x1="60.69" y1="98.51" x2="61.73" y2="95.99" stroke="#3f3f3f" stroke-width="0.15"/>
<line x1="61.79" y1="101.21" x2="64.89" y2="98.11" stroke="#3f3f3f" stroke-width="0.15"/>
<line x1="61.79" y1="101.21" x2="64.49" y2="102.31" stroke="#3f3f3f" stroke-width="0.15"/>
<line x1="63.36" y1="105.00" x2="64.49" y2="102.31" stroke="#3f3f3f" stroke-width="0.15"/>
<line x1="64.49" y1="102.31" x2="67.01" y2="101.27" stroke="#3f3f3f" stroke-width="0.15"/>
<line x1="58.00" y1="92.25" x2="58.00" y2="117.75" stroke="#8a8a8a" stroke-width="0.15" stroke-dasharray="3 1 0.5 1"/>
<line x1="45.25" y1="105.00" x2="70.75" y2="105.00" stroke="#8a8a8a" stroke-width="0.15" stroke-dasharray="3 1 0.5 1"/>
<circle cx="64.89" cy="111.89" r="1.35" fill="#ffffff" stroke="#3f3f3f" stroke-width="0.3"/>
<circle cx="51.11" cy="111.89" r="1.35" fill="#ffffff" stroke="#3f3f3f" stroke-width="0.3"/>
<circle cx="51.11" cy="98.11" r="1.35" fill="#ffffff" stroke="#3f3f3f" stroke-width="0.3"/>
<circle cx="64.89" cy="98.11" r="1.35" fill="#ffffff" stroke="#3f3f3f" stroke-width="0.3"/>
<line x1="48.25" y1="105.00" x2="48.25" y2="87.25" stroke="#8a8a8a" stroke-width="0.15" stroke-dasharray="0.8 0.8"/>
<line x1="67.75" y1="105.00" x2="67.75" y2="87.25" stroke="#8a8a8a" stroke-width="0.15" stroke-dasharray="0.8 0.8"/>
<line x1="48.25" y1="88.25" x2="67.75" y2="88.25" stroke="#8a8a8a" stroke-width="0.15"/>
<line x1="47.35" y1="89.15" x2="49.15" y2="87.35" stroke="#3f3f3f" stroke-width="0.24"/>
<line x1="66.85" y1="89.15" x2="68.65" y2="87.35" stroke="#3f3f3f" stroke-width="0.24"/>
<text x="58.00" y="86.85" font-family="Georgia, 'Times New Roman', serif" font-size="3.2" fill="#3f3f3f" text-anchor="middle">6.5 mm</text>
<line x1="58.00" y1="95.25" x2="76.75" y2="95.25" stroke="#8a8a8a" stroke-width="0.15" stroke-dasharray="0.8 0.8"/>
<line x1="58.00" y1="114.75" x2="76.75" y2="114.75" stroke="#8a8a8a" stroke-width="0.15" stroke-dasharray="0.8 0.8"/>
<line x1="75.75" y1="95.25" x2="75.75" y2="114.75" stroke="#8a8a8a" stroke-width="0.15"/>
<line x1="74.85" y1="96.15" x2="76.65" y2="94.35" stroke="#3f3f3f" stroke-width="0.24"/>
<line x1="74.85" y1="115.65" x2="76.65" y2="113.85" stroke="#3f3f3f" stroke-width="0.24"/>
<text x="77.55" y="106.10" font-family="Georgia, 'Times New Roman', serif" font-size="3.2" fill="#3f3f3f" text-anchor="start">6.5 mm</text>
<line x1="55.30" y1="135.15" x2="55.30" y2="141.15" stroke="#8a8a8a" stroke-width="0.15" stroke-dasharray="0.8 0.8"/>
<line x1="60.70" y1="135.15" x2="60.70" y2="141.15" stroke="#8a8a8a" stroke-width="0.15" stroke-dasharray="0.8 0.8"/>
<line x1="55.30" y1="140.15" x2="60.70" y2="140.15" stroke="#8a8a8a" stroke-width="0.15"/>
<line x1="54.40" y1="141.05" x2="56.20" y2="139.25" stroke="#3f3f3f" stroke-width="0.24"/>
<line x1="59.80" y1="141.05" x2="61.60" y2="139.25" stroke="#3f3f3f" stroke-width="0.24"/>
<text x="58.00" y="138.75" font-family="Georgia, 'Times New Roman', serif" font-size="3.2" fill="#3f3f3f" text-anchor="middle">1.8 mm</text>
<text x="58.00" y="149.15" font-family="Georgia, 'Times New Roman', serif" font-size="3.6" fill="#3f3f3f" text-anchor="middle" letter-spacing="1.2">TOP VIEW</text>
<rect x="135.30" y="74.85" width="5.40" height="60.30" fill="url(#hatch)" stroke="#3f3f3f" stroke-width="0.3"/>
<line x1="135.30" y1="76.05" x2="128.25" y2="61.35" stroke="#3f3f3f" stroke-width="0.3"/>
<line x1="140.70" y1="76.05" x2="147.75" y2="61.35" stroke="#3f3f3f" stroke-width="0.3"/>
<polygon points="132.64,57.45 143.36,57.45 147.75,61.35 138.00,69.15 128.25,61.35" fill="#ffffff" stroke="#3f3f3f" stroke-width="0.3"/>
<line x1="128.25" y1="61.35" x2="147.75" y2="61.35" stroke="#3f3f3f" stroke-width="0.3"/>
<line x1="138.00" y1="54.45" x2="138.00" y2="138.15" stroke="#8a8a8a" stroke-width="0.15" stroke-dasharray="3 1 0.5 1"/>
<line x1="127.58" y1="63.35" x2="127.58" y2="58.45" stroke="#3f3f3f" stroke-width="0.3"/>
<circle cx="127.58" cy="58.45" r="1.35" fill="#ffffff" stroke="#3f3f3f" stroke-width="0.3"/>
<line x1="148.43" y1="63.35" x2="148.43" y2="58.45" stroke="#3f3f3f" stroke-width="0.3"/>
<circle cx="148.43" cy="58.45" r="1.35" fill="#ffffff" stroke="#3f3f3f" stroke-width="0.3"/>
<line x1="143.36" y1="57.45" x2="157.75" y2="57.45" stroke="#8a8a8a" stroke-width="0.15" stroke-dasharray="0.8 0.8"/>
<line x1="140.70" y1="74.85" x2="157.75" y2="74.85" stroke="#8a8a8a" stroke-width="0.15" stroke-dasharray="0.8 0.8"/>
<line x1="156.75" y1="57.45" x2="156.75" y2="74.85" stroke="#8a8a8a" stroke-width="0.15"/>
<line x1="155.85" y1="58.35" x2="157.65" y2="56.55" stroke="#3f3f3f" stroke-width="0.24"/>
<line x1="155.85" y1="75.75" x2="157.65" y2="73.95" stroke="#3f3f3f" stroke-width="0.24"/>
<text x="158.55" y="67.25" font-family="Georgia, 'Times New Roman', serif" font-size="3.2" fill="#3f3f3f" text-anchor="start">5.8 mm rise</text>
<line x1="135.30" y1="135.15" x2="135.30" y2="142.15" stroke="#8a8a8a" stroke-width="0.15" stroke-dasharray="0.8 0.8"/>
<line x1="140.70" y1="135.15" x2="140.70" y2="142.15" stroke="#8a8a8a" stroke-width="0.15" stroke-dasharray="0.8 0.8"/>
<line x1="135.30" y1="141.15" x2="140.70" y2="141.15" stroke="#8a8a8a" stroke-width="0.15"/>
<line x1="134.40" y1="142.05" x2="136.20" y2="140.25" stroke="#3f3f3f" stroke-width="0.24"/>
<line x1="139.80" y1="142.05" x2="141.60" y2="140.25" stroke="#3f3f3f" stroke-width="0.24"/>
<text x="138.00" y="139.75" font-family="Georgia, 'Times New Roman', serif" font-size="3.2" fill="#3f3f3f" text-anchor="middle">1.8 mm</text>
<text x="138.00" y="149.15" font-family="Georgia, 'Times New Roman', serif" font-size="3.6" fill="#3f3f3f" text-anchor="middle" letter-spacing="1.2">FRONT VIEW</text>
<circle cx="208.00" cy="105.00" r="30.15" fill="url(#hatch)" stroke="#3f3f3f" stroke-width="0.3"/>
<circle cx="208.00" cy="105.00" r="25.35" fill="#ffffff" stroke="#3f3f3f" stroke-width="0.3"/>
<line x1="199.56" y1="76.05" x2="198.25" y2="61.35" stroke="#3f3f3f" stroke-width="0.3"/>
<line x1="216.44" y1="76.05" x2="217.75" y2="61.35" stroke="#3f3f3f" stroke-width="0.3"/>
<polygon points="202.64,57.45 213.36,57.45 217.75,61.35 208.00,69.15 198.25,61.35" fill="#ffffff" stroke="#3f3f3f" stroke-width="0.3"/>
<line x1="198.25" y1="61.35" x2="217.75" y2="61.35" stroke="#3f3f3f" stroke-width="0.3"/>
<line x1="208.00" y1="54.45" x2="208.00" y2="138.15" stroke="#8a8a8a" stroke-width="0.15" stroke-dasharray="3 1 0.5 1"/>
<line x1="197.57" y1="63.35" x2="197.57" y2="58.45" stroke="#3f3f3f" stroke-width="0.3"/>
<circle cx="197.57" cy="58.45" r="1.35" fill="#ffffff" stroke="#3f3f3f" stroke-width="0.3"/>
<line x1="218.43" y1="63.35" x2="218.43" y2="58.45" stroke="#3f3f3f" stroke-width="0.3"/>
<circle cx="218.43" cy="58.45" r="1.35" fill="#ffffff" stroke="#3f3f3f" stroke-width="0.3"/>
<line x1="182.65" y1="105.00" x2="233.35" y2="105.00" stroke="#8a8a8a" stroke-width="0.15"/>
<line x1="181.75" y1="105.90" x2="183.55" y2="104.10" stroke="#3f3f3f" stroke-width="0.24"/>
<line x1="232.45" y1="105.90" x2="234.25" y2="104.10" stroke="#3f3f3f" stroke-width="0.24"/>
<text x="208.00" y="103.60" font-family="Georgia, 'Times New Roman', serif" font-size="3.2" fill="#3f3f3f" text-anchor="middle">⌀ 16.9 mm</text>
<line x1="217.75" y1="61.35" x2="248.15" y2="61.35" stroke="#8a8a8a" stroke-width="0.15" stroke-dasharray="0.8 0.8"/>
<line x1="208.00" y1="74.85" x2="248.15" y2="74.85" stroke="#8a8a8a" stroke-width="0.15" stroke-dasharray="0.8 0.8"/>
<line x1="247.15" y1="61.35" x2="247.15" y2="74.85" stroke="#8a8a8a" stroke-width="0.15"/>
<line x1="246.25" y1="62.25" x2="248.05" y2="60.45" stroke="#3f3f3f" stroke-width="0.24"/>
<line x1="246.25" y1="75.75" x2="248.05" y2="73.95" stroke="#3f3f3f" stroke-width="0.24"/>
<text x="248.95" y="69.20" font-family="Georgia, 'Times New Roman', serif" font-size="3.2" fill="#3f3f3f" text-anchor="start">4.5 mm gallery</text>
<line x1="213.36" y1="57.45" x2="274.15" y2="57.45" stroke="#8a8a8a" stroke-width="0.15" stroke-dasharray="0.8 0.8"/>
<line x1="208.00" y1="69.15" x2="274.15" y2="69.15" stroke="#8a8a8a" stroke-width="0.15" stroke-dasharray="0.8 0.8"/>
<line x1="273.15" y1="57.45" x2="273.15" y2="69.15" stroke="#8a8a8a" stroke-width="0.15"/>
<line x1="272.25" y1="58.35" x2="274.05" y2="56.55" stroke="#3f3f3f" stroke-width="0.24"/>
<line x1="272.25" y1="70.05" x2="274.05" y2="68.25" stroke="#3f3f3f" stroke-width="0.24"/>
<text x="274.95" y="64.40" font-family="Georgia, 'Times New Roman', serif" font-size="3.2" fill="#3f3f3f" text-anchor="start">3.9 mm</text>
<text x="208.00" y="147.15" font-family="Georgia, 'Times New Roman', serif" font-size="3.6" fill="#3f3f3f" text-anchor="middle" letter-spacing="1.2">SIDE PROFILE</text>
<rect x="189.00" y="162.00" width="100" height="40" fill="none" stroke="#3f3f3f" stroke-width="0.3"/>
<line x1="189.00" y1="170.00" x2="289.00" y2="170.00" stroke="#3f3f3f" stroke-width="0.15"/>
<text x="192.00" y="167.80" font-family="Georgia, 'Times New Roman', serif" font-size="4.0" fill="#3f3f3f" text-anchor="start" letter-spacing="2.0">FACETTA</text>
<text x="192.00" y="175.60" font-family="Georgia, 'Times New Roman', serif" font-size="4.2" fill="#3f3f3f" text-anchor="start" font-weight="bold">dsn_8Kx2  ·  v3</text>
<text x="192.00" y="180.20" font-family="Georgia, 'Times New Roman', serif" font-size="3.2" fill="#3f3f3f" text-anchor="start">1.00 ct diamond, round brilliant</text>
<text x="192.00" y="184.80" font-family="Georgia, 'Times New Roman', serif" font-size="3.2" fill="#3f3f3f" text-anchor="start">18k yellow gold, high polish</text>
<text x="192.00" y="189.40" font-family="Georgia, 'Times New Roman', serif" font-size="3.2" fill="#3f3f3f" text-anchor="start">D  ·  VS1</text>
<text x="192.00" y="194.00" font-family="Georgia, 'Times New Roman', serif" font-size="3.0" fill="#3f3f3f" text-anchor="start">designer usr_ana  ·  2026-07-02</text>
<text x="192.00" y="198.60" font-family="Georgia, 'Times New Roman', serif" font-size="3.0" fill="#3f3f3f" text-anchor="start">UNITS mm  ·  SCALE 3:1  ·  EST. 2.6 g</text>
<text x="12.00" y="198.00" font-family="Georgia, 'Times New Roman', serif" font-size="3.0" fill="#3f3f3f" text-anchor="start">NOTES: Slightly higher gallery to clear a future wedding band.</text>
</svg>
